<svg width="42" height="42" viewBox="0 0 42 42" fill="none" xmlns="http://www.w3.org/2000/svg">
<path d="M28.0547 27.0062C27.0596 27.0062 26.25 26.2973 26.25 25.4291C26.25 24.5609 27.0596 23.8521 28.0547 23.8521C29.0497 23.8521 29.8594 24.5609 29.8594 25.4291C29.8594 25.6493 29.9458 25.8604 30.0996 26.0161C30.2535 26.1717 30.4621 26.2592 30.6797 26.2592C30.8972 26.2592 31.1059 26.1717 31.2597 26.0161C31.4136 25.8604 31.5 25.6493 31.5 25.4291C31.5 23.9077 30.3803 22.6286 28.875 22.2816V21.85C28.875 21.6299 28.7886 21.4187 28.6347 21.2631C28.4809 21.1074 28.2722 21.02 28.0547 21.02C27.8371 21.02 27.6285 21.1074 27.4746 21.2631C27.3208 21.4187 27.2344 21.6299 27.2344 21.85V22.2816C25.7299 22.6286 24.6094 23.9077 24.6094 25.4291C24.6094 27.2154 26.1557 28.6663 28.0547 28.6663C29.0505 28.6663 29.8594 29.3751 29.8594 30.2434C29.8594 31.1116 29.0505 31.8204 28.0547 31.8204C27.0588 31.8204 26.25 31.1116 26.25 30.2434C26.25 30.0232 26.1636 29.8121 26.0097 29.6564C25.8559 29.5008 25.6472 29.4133 25.4297 29.4133C25.2121 29.4133 25.0035 29.5008 24.8496 29.6564C24.6958 29.8121 24.6094 30.0232 24.6094 30.2434C24.6094 31.7648 25.7299 33.0431 27.2344 33.3909V33.7494C27.2344 33.9696 27.3208 34.1807 27.4746 34.3364C27.6285 34.492 27.8371 34.5795 28.0547 34.5795C28.2722 34.5795 28.4809 34.492 28.6347 34.3364C28.7886 34.1807 28.875 33.9696 28.875 33.7494V33.3909C30.3803 33.0431 31.5 31.7648 31.5 30.2434C31.5 28.4596 29.9504 27.0062 28.0547 27.0062Z" fill="#FF8863"/>
<path d="M37.0355 22.0691C35.9666 20.3815 34.4551 19.0279 32.6698 18.1596C32.5722 18.1064 32.4649 18.0737 32.3545 18.0636C32.2441 18.0534 32.1328 18.0661 32.0273 18.1007C31.9218 18.1353 31.8244 18.1912 31.7409 18.265C31.6574 18.3388 31.5895 18.429 31.5414 18.53C31.4933 18.6311 31.4659 18.741 31.461 18.8531C31.456 18.9651 31.4735 19.0771 31.5125 19.1821C31.5515 19.2871 31.6111 19.3831 31.6878 19.4641C31.7645 19.5452 31.8566 19.6096 31.9585 19.6537C33.0545 20.1865 34.0329 20.9379 34.835 21.8627C35.637 22.7874 36.2463 23.8666 36.6262 25.0354C37.006 26.2042 37.1487 27.4385 37.0457 28.6645C36.9426 29.8905 36.596 31.0827 36.0265 32.1698C35.9736 32.2662 35.9403 32.3722 35.9284 32.4818C35.9165 32.5913 35.9263 32.7022 35.9571 32.8078C35.988 32.9135 36.0394 33.0119 36.1082 33.0973C36.1771 33.1827 36.2621 33.2533 36.3582 33.3051C36.4543 33.3569 36.5597 33.3888 36.6681 33.399C36.7766 33.4092 36.8859 33.3974 36.9898 33.3643C37.0937 33.3313 37.1901 33.2776 37.2732 33.2065C37.3564 33.1354 37.4248 33.0482 37.4743 32.9501C38.3606 31.2594 38.787 29.3609 38.7099 27.4487C38.6328 25.5365 38.0549 23.6794 37.0355 22.0674V22.0691Z" fill="#FF8863"/>
<path d="M29.3401 17.0988H29.2852C29.0676 17.0988 28.8589 17.1863 28.7051 17.3419C28.5513 17.4976 28.4648 17.7087 28.4648 17.9289C28.4648 18.149 28.5513 18.3601 28.7051 18.5158C28.8589 18.6714 29.0676 18.7589 29.2852 18.7589H29.3368C29.5544 18.7589 29.763 18.6714 29.9169 18.5158C30.0707 18.3601 30.1571 18.149 30.1571 17.9289C30.1571 17.7087 30.0707 17.4976 29.9169 17.3419C29.763 17.1863 29.5544 17.0988 29.3368 17.0988H29.3401Z" fill="#FF8863"/>
<path d="M24.1508 36.1234C23.0548 35.5905 22.0764 34.8391 21.2744 33.9144C20.4723 32.9896 19.8631 31.9105 19.4832 30.7417C19.1033 29.5729 18.9606 28.3385 19.0637 27.1125C19.1667 25.8866 19.5134 24.6943 20.0829 23.6072C20.1335 23.511 20.165 23.4056 20.1755 23.2971C20.1859 23.1886 20.1751 23.0791 20.1437 22.9748C20.1124 22.8705 20.061 22.7735 19.9925 22.6893C19.9241 22.6052 19.84 22.5354 19.7449 22.4841C19.6498 22.4329 19.5457 22.401 19.4385 22.3904C19.3313 22.3799 19.223 22.3908 19.12 22.4225C19.0169 22.4543 18.921 22.5063 18.8378 22.5755C18.7546 22.6448 18.6857 22.7299 18.635 22.8261C17.9612 24.1106 17.5507 25.5195 17.4284 26.9684C17.306 28.4174 17.4743 29.8764 17.923 31.2579C18.3717 32.6394 19.0917 33.9149 20.0396 35.0079C20.9876 36.1008 22.1441 36.9887 23.4396 37.6183C23.5372 37.6715 23.6444 37.7042 23.7548 37.7143C23.8653 37.7244 23.9766 37.7118 24.082 37.6772C24.1875 37.6425 24.2849 37.5866 24.3684 37.5129C24.4519 37.4391 24.5198 37.3489 24.5679 37.2478C24.616 37.1468 24.6434 37.0369 24.6484 36.9248C24.6533 36.8127 24.6358 36.7008 24.5968 36.5958C24.5578 36.4907 24.4982 36.3948 24.4215 36.3138C24.3449 36.2327 24.2528 36.1682 24.1508 36.1242V36.1234Z" fill="#FF8863"/>
<path d="M26.8242 37.0198H26.7767C26.5591 37.0188 26.3501 37.1053 26.1955 37.2603C26.041 37.4152 25.9536 37.6259 25.9526 37.8461C25.9517 38.0662 26.0372 38.2777 26.1903 38.4341C26.3434 38.5905 26.5517 38.6789 26.7693 38.6799H26.8242C27.0418 38.6799 27.2504 38.5924 27.4043 38.4368C27.5581 38.2811 27.6445 38.07 27.6445 37.8498C27.6445 37.6297 27.5581 37.4186 27.4043 37.2629C27.2504 37.1072 27.0418 37.0198 26.8242 37.0198Z" fill="#FF8863"/>
<path d="M31.7797 14.2908C31.6818 14.0531 31.5606 13.8259 31.418 13.6126H33.5508C34.5516 13.6126 35.5113 13.2104 36.219 12.4943C36.9267 11.7783 37.3242 10.8071 37.3242 9.79446C37.3242 8.78182 36.9267 7.81065 36.219 7.0946C35.5113 6.37855 34.5516 5.97628 33.5508 5.97628H26.9817C27.3699 5.40294 27.5962 4.73325 27.636 4.0394C27.6757 3.34556 27.5276 2.65389 27.2076 2.03895C26.8875 1.42401 26.4076 0.909133 25.8196 0.549827C25.2317 0.19052 24.558 0.000412872 23.8711 0L3.77344 0C2.77266 0 1.81287 0.402271 1.10521 1.11832C0.397557 1.83437 0 2.80554 0 3.81818C0 4.83083 0.397557 5.80199 1.10521 6.51804C1.81287 7.23409 2.77266 7.63636 3.77344 7.63636H10.3425C9.91079 8.27127 9.67966 9.0238 9.67966 9.79446C9.67966 10.5651 9.91079 11.3177 10.3425 11.9526H8.20312C7.4207 11.9535 6.65792 12.2006 6.02036 12.6595C5.38279 13.1184 4.90198 13.7665 4.64447 14.5141C4.38696 15.2617 4.36549 16.0718 4.58302 16.8323C4.80056 17.5928 5.24634 18.266 5.85867 18.7589C5.41317 19.1156 5.05321 19.5698 4.80576 20.0872C4.5583 20.6047 4.42976 21.1722 4.42976 21.747C4.42976 22.3219 4.5583 22.8893 4.80576 23.4068C5.05321 23.9243 5.41317 24.3784 5.85867 24.7352C5.41317 25.0919 5.05321 25.5461 4.80576 26.0635C4.5583 26.581 4.42976 27.1484 4.42976 27.7233C4.42976 28.2982 4.5583 28.8656 4.80576 29.3831C5.05321 29.9006 5.41317 30.3547 5.85867 30.7115C5.24634 31.2043 4.80056 31.8776 4.58302 32.638C4.36549 33.3985 4.38696 34.2086 4.64447 34.9562C4.90198 35.7038 5.38279 36.3519 6.02036 36.8109C6.65792 37.2698 7.4207 37.5168 8.20312 37.5178H17.8705C19.1727 38.9327 20.749 40.061 22.5012 40.8321C24.2535 41.6033 26.1439 42.0009 28.0547 42C35.7443 42 42 35.6701 42 27.8893C42 21.415 37.6663 15.9434 31.7797 14.2908ZM33.5508 7.63636C34.1164 7.63636 34.6589 7.86373 35.0589 8.26846C35.4589 8.67318 35.6836 9.2221 35.6836 9.79446C35.6836 10.3668 35.4589 10.9158 35.0589 11.3205C34.6589 11.7252 34.1164 11.9526 33.5508 11.9526H13.4531C12.8875 11.9526 12.345 11.7252 11.945 11.3205C11.545 10.9158 11.3203 10.3668 11.3203 9.79446C11.3203 9.2221 11.545 8.67318 11.945 8.26846C12.345 7.86373 12.8875 7.63636 13.4531 7.63636H33.5508ZM3.77344 5.97628C3.20778 5.97628 2.66529 5.74891 2.26531 5.34419C1.86533 4.93947 1.64062 4.39054 1.64062 3.81818C1.64062 3.24582 1.86533 2.69689 2.26531 2.29217C2.66529 1.88745 3.20778 1.66008 3.77344 1.66008H23.8711C24.4368 1.66008 24.9792 1.88745 25.3792 2.29217C25.7792 2.69689 26.0039 3.24582 26.0039 3.81818C26.0039 4.39054 25.7792 4.93947 25.3792 5.34419C24.9792 5.74891 24.4368 5.97628 23.8711 5.97628H3.77344ZM8.20312 13.6126H28.3008C28.6233 13.6129 28.9416 13.687 29.2318 13.8293C28.843 13.7955 28.4506 13.7787 28.0547 13.7787C26.2206 13.7776 24.4044 14.1438 22.7107 14.856C21.017 15.5683 19.4794 16.6126 18.1863 17.9288H8.20312C7.63747 17.9288 7.09498 17.7015 6.695 17.2968C6.29502 16.892 6.07031 16.3431 6.07031 15.7707C6.07031 15.1984 6.29502 14.6495 6.695 14.2447C7.09498 13.84 7.63747 13.6126 8.20312 13.6126ZM8.20312 19.5889H16.7844C15.8421 20.8946 15.129 22.3546 14.6762 23.9051H8.20312C7.63747 23.9051 7.09498 23.6778 6.695 23.273C6.29502 22.8683 6.07031 22.3194 6.07031 21.747C6.07031 21.1747 6.29502 20.6257 6.695 20.221C7.09498 19.8163 7.63747 19.5889 8.20312 19.5889ZM8.20312 25.5652H14.2997C14.0643 26.9928 14.0472 28.4485 14.2488 29.8814H8.20312C7.63747 29.8814 7.09498 29.654 6.695 29.2493C6.29502 28.8446 6.07031 28.2957 6.07031 27.7233C6.07031 27.1509 6.29502 26.602 6.695 26.1973C7.09498 25.7926 7.63747 25.5652 8.20312 25.5652ZM8.20312 35.8577C7.63747 35.8577 7.09498 35.6303 6.695 35.2256C6.29502 34.8209 6.07031 34.272 6.07031 33.6996C6.07031 33.1272 6.29502 32.5783 6.695 32.1736C7.09498 31.7689 7.63747 31.5415 8.20312 31.5415H14.5843C14.9934 33.083 15.6592 34.5426 16.5531 35.8577H8.20312ZM28.0547 40.3399C21.2699 40.3399 15.75 34.7546 15.75 27.8893C15.75 21.0241 21.2699 15.4387 28.0547 15.4387C34.8395 15.4387 40.3594 21.0241 40.3594 27.8893C40.3594 34.7546 34.8395 40.3399 28.0547 40.3399Z" fill="white"/>
</svg>
