<svg width="50" height="40" viewBox="0 0 50 40" fill="none" xmlns="http://www.w3.org/2000/svg">
<g clip-path="url(#clip0)">
<path d="M17.0582 13.2961L9.60901 28.1531C9.05237 29.2637 10.8219 30.1128 11.3805 29.0004L18.0446 15.71L29.2457 38.0479H6.84338L7.89612 35.949C8.45276 34.8384 6.68225 33.9893 6.12463 35.1017L4.6344 38.0737H0.949829C-0.319702 38.0737 -0.319702 40 0.949829 40H49.0494C50.319 40 50.319 38.0737 49.0494 38.0737H45.399L32.8922 20.4642C32.7995 20.339 32.6777 20.2372 32.5369 20.1669C32.3961 20.0967 32.2403 20.06 32.0821 20.06C31.924 20.06 31.7682 20.0967 31.6274 20.1669C31.4866 20.2372 31.3648 20.339 31.2721 20.4642L26.2037 27.6017L19.0309 13.2961V9.68396H29.2115C29.3807 9.68015 29.546 9.63446 29.6921 9.55116C29.8382 9.46786 29.9602 9.34968 30.0468 9.2077C30.1334 9.06572 30.1816 8.90459 30.187 8.73942C30.1925 8.57424 30.1549 8.41042 30.0778 8.26333C29.8405 7.83052 29.7111 7.34917 29.6999 6.85833C29.6887 6.36749 29.796 5.88099 30.0133 5.43828C30.1184 5.2696 30.1763 5.07687 30.1811 4.87943C30.1859 4.68198 30.1375 4.48678 30.0406 4.31342C29.8136 3.87593 29.6953 3.39234 29.6953 2.90185C29.6953 2.41136 29.8136 1.92777 30.0406 1.49028C30.4293 0.851044 29.9957 0 29.2115 0H18.0446C17.783 0 17.5321 0.101525 17.3471 0.282239C17.1621 0.462954 17.0582 0.708056 17.0582 0.963626V13.2961ZM19.0309 1.92725H27.8199C27.6244 2.90816 27.7304 3.92365 28.1246 4.8458C27.7336 5.76644 27.6293 6.77937 27.8248 7.75766H19.0358L19.0309 1.92725ZM27.1949 29.5766C27.2125 29.5556 27.2301 29.5346 27.2457 29.5117L32.0826 22.7072L42.9811 38.0518H31.4449L27.1949 29.5766Z" fill="white"/>
<path d="M8.9688 31.1757C8.77768 31.1386 8.5796 31.1577 8.3996 31.2306C8.2196 31.3035 8.06576 31.4269 7.95752 31.5852C7.84929 31.7435 7.79153 31.9296 7.79153 32.1199C7.79154 32.3103 7.84931 32.4964 7.95755 32.6547C8.0658 32.813 8.21964 32.9363 8.39965 33.0092C8.57965 33.0821 8.77773 33.1012 8.96885 33.0641C9.15997 33.027 9.33554 32.9354 9.47337 32.8009C9.6112 32.6663 9.7051 32.4948 9.74321 32.3082C9.79169 32.0579 9.73772 31.7991 9.5929 31.5873C9.44809 31.3755 9.22399 31.2277 8.9688 31.1757Z" fill="#FF8863"/>
</g>
<defs>
<clipPath id="clip0">
<rect width="50" height="40" fill="white"/>
</clipPath>
</defs>
</svg>
