<svg width="32" height="43" viewBox="0 0 32 43" fill="none" xmlns="http://www.w3.org/2000/svg">
<path d="M16 17.7207C15.6736 17.7207 15.3605 17.588 15.1297 17.3517C14.8989 17.1155 14.7692 16.795 14.7692 16.4609C14.7692 16.1268 14.6396 15.8064 14.4087 15.5701C14.1779 15.3339 13.8649 15.2012 13.5385 15.2012C13.212 15.2012 12.899 15.3339 12.6682 15.5701C12.4374 15.8064 12.3077 16.1268 12.3077 16.4609C12.3086 17.2422 12.5457 18.004 12.9864 18.6418C13.4272 19.2797 14.0499 19.7623 14.7692 20.0236V21.5C14.7692 21.8341 14.8989 22.1545 15.1297 22.3908C15.3605 22.627 15.6736 22.7598 16 22.7598C16.3264 22.7598 16.6395 22.627 16.8703 22.3908C17.1011 22.1545 17.2308 21.8341 17.2308 21.5V20.0236C18.0516 19.7261 18.7433 19.1413 19.1837 18.3725C19.6241 17.6036 19.7849 16.7002 19.6376 15.8218C19.4904 14.9434 19.0446 14.1465 18.3789 13.5719C17.7133 12.9973 16.8707 12.682 16 12.6816C15.7566 12.6816 15.5186 12.6078 15.3162 12.4693C15.1138 12.3309 14.9561 12.1342 14.8629 11.904C14.7698 11.6738 14.7454 11.4205 14.7929 11.1761C14.8404 10.9317 14.9576 10.7073 15.1297 10.5311C15.3018 10.3549 15.5211 10.2349 15.7599 10.1863C15.9986 10.1377 16.2461 10.1627 16.471 10.258C16.6959 10.3534 16.8881 10.5148 17.0233 10.722C17.1586 10.9292 17.2308 11.1727 17.2308 11.4219C17.2308 11.756 17.3604 12.0764 17.5912 12.3127C17.8221 12.5489 18.1351 12.6816 18.4615 12.6816C18.788 12.6816 19.101 12.5489 19.3318 12.3127C19.5626 12.0764 19.6923 11.756 19.6923 11.4219C19.6915 10.6406 19.4544 9.87874 19.0137 9.24087C18.573 8.60299 17.9502 8.12038 17.2308 7.85926V6.38281C17.2308 6.0487 17.1011 5.72828 16.8703 5.49202C16.6395 5.25577 16.3264 5.12305 16 5.12305C15.6736 5.12305 15.3605 5.25577 15.1297 5.49202C14.8989 5.72828 14.7692 6.0487 14.7692 6.38281V7.85926C13.9484 8.1567 13.2567 8.74149 12.8163 9.51033C12.3759 10.2792 12.2151 11.1826 12.3624 12.061C12.5096 12.9394 12.9554 13.7363 13.621 14.3109C14.2867 14.8855 15.1293 15.2008 16 15.2012C16.3264 15.2012 16.6395 15.3339 16.8703 15.5701C17.1011 15.8064 17.2308 16.1268 17.2308 16.4609C17.2308 16.795 17.1011 17.1155 16.8703 17.3517C16.6395 17.588 16.3264 17.7207 16 17.7207Z" fill="#FF8863"/>
<path d="M30.7692 40.4805H29.5385V32.5481C29.5372 30.4036 29.0481 28.2888 28.11 26.3712C27.1719 24.4536 25.8106 22.7858 24.1337 21.5C25.8106 20.214 27.1719 18.5461 28.11 16.6284C29.0481 14.7106 29.5372 12.5957 29.5385 10.451V2.51953H30.7692C31.0957 2.51953 31.4087 2.38681 31.6395 2.15055C31.8703 1.9143 32 1.59388 32 1.25977C32 0.925655 31.8703 0.605229 31.6395 0.368977C31.4087 0.132725 31.0957 0 30.7692 0L1.23077 0C0.904349 0 0.591298 0.132725 0.360484 0.368977C0.12967 0.605229 0 0.925655 0 1.25977C0 1.59388 0.12967 1.9143 0.360484 2.15055C0.591298 2.38681 0.904349 2.51953 1.23077 2.51953H2.46154V10.451C2.46284 12.5957 2.9519 14.7106 3.88998 16.6284C4.82806 18.5461 6.18941 20.214 7.86626 21.5C6.18943 22.7858 4.82807 24.4536 3.88999 26.3712C2.9519 28.2888 2.46284 30.4036 2.46154 32.5481V40.4805H1.23077C0.904349 40.4805 0.591298 40.6132 0.360484 40.8494C0.12967 41.0857 0 41.4061 0 41.7402C0 42.0743 0.12967 42.3948 0.360484 42.631C0.591298 42.8673 0.904349 43 1.23077 43H30.7692C31.0957 43 31.4087 42.8673 31.6395 42.631C31.8703 42.3948 32 42.0743 32 41.7402C32 41.4061 31.8703 41.0857 31.6395 40.8494C31.4087 40.6132 31.0957 40.4805 30.7692 40.4805ZM4.92308 32.5481C4.92579 30.5098 5.4664 28.51 6.48778 26.7601C7.50917 25.0103 8.9734 23.5753 10.7257 22.6069C10.9203 22.4987 11.0828 22.3388 11.196 22.1439C11.3092 21.9491 11.3689 21.7267 11.3689 21.5C11.3689 21.2733 11.3092 21.0509 11.196 20.8561C11.0828 20.6612 10.9203 20.5013 10.7257 20.3931C8.97339 19.4245 7.50918 17.9893 6.48781 16.2393C5.46643 14.4894 4.92582 12.4895 4.92308 10.451V2.51953H27.0769V10.451C27.0742 12.4895 26.5336 14.4894 25.5122 16.2393C24.4908 17.9893 23.0266 19.4245 21.2743 20.3931C21.0797 20.5013 20.9172 20.6612 20.804 20.8561C20.6908 21.0509 20.6311 21.2733 20.6311 21.5C20.6311 21.7267 20.6908 21.9491 20.804 22.1439C20.9172 22.3388 21.0797 22.4987 21.2743 22.6069C23.0266 23.5753 24.4908 25.0103 25.5122 26.7601C26.5336 28.51 27.0742 30.5098 27.0769 32.5481V40.4805H26.2564L16.7385 33.1738C16.5254 33.0103 16.2663 32.9219 16 32.9219C15.7337 32.9219 15.4746 33.0103 15.2615 33.1738L5.74359 40.4805H4.92308V32.5481ZM22.1538 40.4805H9.84615L16 35.7563L22.1538 40.4805Z" fill="white"/>
<path d="M16 25.2793C15.6736 25.2793 15.3605 25.412 15.1297 25.6483C14.8989 25.8845 14.7692 26.205 14.7692 26.5391V29.0586C14.7692 29.3927 14.8989 29.7131 15.1297 29.9494C15.3605 30.1856 15.6736 30.3184 16 30.3184C16.3264 30.3184 16.6395 30.1856 16.8703 29.9494C17.1011 29.7131 17.2308 29.3927 17.2308 29.0586V26.5391C17.2308 26.205 17.1011 25.8845 16.8703 25.6483C16.6395 25.412 16.3264 25.2793 16 25.2793Z" fill="#FF8863"/>
</svg>
