<svg width="38" height="43" viewBox="0 0 38 43" fill="none" xmlns="http://www.w3.org/2000/svg">
<path d="M16.6001 12.9387C16.6904 12.9252 16.655 12.9336 16.6001 12.9387V12.9387Z" fill="#FCFCFC"/>
<path d="M35.4667 31.6621V29.1426C35.4667 22.1072 30.9818 16.0931 24.7068 13.7802C25.1156 13.1623 25.3335 12.4387 25.3333 11.699C25.3333 9.95887 24.1773 8.44295 22.5695 7.97012C24.3357 6.17761 25.3276 3.7695 25.3333 1.25977V0H12.6667V1.25977C12.6724 3.7695 13.6643 6.17761 15.4305 7.97012C13.8261 8.44295 12.6667 9.95887 12.6667 11.699C12.6665 12.4387 12.8844 13.1623 13.2932 13.7802C7.01818 16.0931 2.53333 22.1064 2.53333 29.1426V31.6621C1.46993 32.4553 0.684422 33.5612 0.288081 34.8231C-0.10826 36.0849 -0.0953418 37.4389 0.325006 38.693C0.745353 39.9472 1.55182 41.0381 2.63017 41.811C3.70852 42.584 5.00408 43 6.33333 43H31.6667C32.9959 43 34.2915 42.584 35.3698 41.811C36.4482 41.0381 37.2546 39.9472 37.675 38.693C38.0953 37.4389 38.1083 36.0849 37.7119 34.8231C37.3156 33.5612 36.5301 32.4553 35.4667 31.6621ZM15.3148 2.51953H22.6852C22.3102 4.56371 21.0385 6.37357 19.2229 7.37635H18.7788C16.9615 6.37357 15.6898 4.56371 15.3148 2.51953ZM16.3172 10.3494C18.0969 10.0997 19.9031 10.0997 21.6828 10.3494C22.2984 10.4334 22.8 11.0423 22.8 11.699C22.8005 11.8805 22.7616 12.0599 22.686 12.225C22.6103 12.39 22.4997 12.537 22.3617 12.6556C22.2315 12.7697 22.0779 12.8542 21.9114 12.9031C21.745 12.9519 21.5699 12.9641 21.3982 12.9386C19.8078 12.7077 18.1922 12.7077 16.6018 12.9386C16.3898 12.9689 16.5173 12.9504 16.6018 12.9386C16.4304 12.9638 16.2556 12.9516 16.0895 12.9027C15.9233 12.8538 15.7699 12.7695 15.64 12.6556C15.5016 12.5371 15.3907 12.3903 15.3148 12.2252C15.2388 12.0601 15.1997 11.8806 15.2 11.699C15.2 11.0423 15.7016 10.4367 16.3172 10.3494ZM31.6667 40.4805H6.33333C5.70842 40.4805 5.09316 40.3272 4.54204 40.0342C3.99092 39.7412 3.52095 39.3176 3.17377 38.8008C2.82659 38.2841 2.61291 37.6901 2.55166 37.0716C2.49041 36.4531 2.58348 35.8291 2.82263 35.2549C3.06177 34.6807 3.43961 34.174 3.92267 33.7797C4.40573 33.3855 4.97911 33.1157 5.59201 32.9945C6.20492 32.8732 6.83843 32.9042 7.43643 33.0846C8.03444 33.265 8.57847 33.5893 9.02036 34.0288L10.8089 32.25C10.2228 31.663 9.52545 31.1974 8.75721 30.8803C7.98898 30.5631 7.16512 30.4007 6.33333 30.4023C5.90794 30.4022 5.4836 30.4444 5.06667 30.5283V29.1426C5.06667 22.1442 10.3098 16.3417 17.0949 15.4153C17.1861 15.4027 19.6426 15.2474 20.9051 15.4153C27.6902 16.3425 32.9333 22.1442 32.9333 29.1426V30.5283C32.5164 30.4444 32.0921 30.4022 31.6667 30.4023C30.8349 30.4007 30.011 30.5631 29.2428 30.8803C28.4746 31.1974 27.7772 31.663 27.1911 32.25L28.9822 34.0313C29.4239 33.5912 29.968 33.2662 30.5662 33.0853C31.1645 32.9044 31.7983 32.8731 32.4117 32.9942C33.025 33.1153 33.5988 33.3851 34.0821 33.7795C34.5655 34.174 34.9435 34.681 35.1827 35.2556C35.4219 35.8302 35.5148 36.4546 35.4532 37.0734C35.3916 37.6922 35.1775 38.2864 34.8297 38.8032C34.4819 39.32 34.0113 39.7435 33.4595 40.0361C32.9078 40.3286 32.2919 40.4813 31.6667 40.4805Z" fill="#FCFCFC"/>
<path d="M19 27.8828C18.7495 27.8828 18.5046 27.8089 18.2963 27.6705C18.088 27.5321 17.9256 27.3353 17.8297 27.1051C17.7339 26.8749 17.7088 26.6216 17.7577 26.3773C17.8065 26.1329 17.9272 25.9084 18.1043 25.7323C18.2815 25.5561 18.5072 25.4361 18.7529 25.3875C18.9986 25.3389 19.2533 25.3638 19.4847 25.4592C19.7162 25.5545 19.914 25.716 20.0532 25.9232C20.1924 26.1303 20.2667 26.3739 20.2667 26.623H22.8C22.799 25.8418 22.555 25.08 22.1014 24.4421C21.6479 23.8043 21.007 23.3217 20.2667 23.0604V20.3242H17.7333V23.0604C16.8886 23.3579 16.1767 23.9427 15.7234 24.7115C15.2702 25.4803 15.1047 26.3838 15.2563 27.2622C15.4078 28.1406 15.8666 28.9375 16.5517 29.5121C17.2367 30.0867 18.1039 30.402 19 30.4023C19.2505 30.4023 19.4954 30.4762 19.7037 30.6147C19.912 30.7531 20.0744 30.9498 20.1702 31.18C20.2661 31.4102 20.2912 31.6635 20.2423 31.9079C20.1935 32.1522 20.0728 32.3767 19.8957 32.5529C19.7185 32.7291 19.4928 32.8491 19.2471 32.8977C19.0014 32.9463 18.7467 32.9213 18.5153 32.826C18.2838 32.7306 18.086 32.5692 17.9468 32.362C17.8076 32.1548 17.7333 31.9113 17.7333 31.6621H15.2C15.201 32.4434 15.445 33.2052 15.8985 33.843C16.3521 34.4809 16.993 34.9635 17.7333 35.2247V37.9609H20.2667V35.2247C21.1114 34.9273 21.8233 34.3425 22.2766 33.5737C22.7298 32.8048 22.8953 31.9014 22.7437 31.023C22.5922 30.1446 22.1334 29.3477 21.4483 28.7731C20.7633 28.1985 19.8961 27.8832 19 27.8828Z" fill="#FF8863"/>
</svg>
