<svg width="45" height="45" viewBox="0 0 45 45" fill="none" xmlns="http://www.w3.org/2000/svg">
<path d="M10.5469 17.8418H7.07352C7.66028 9.84375 14.3548 3.51562 22.5 3.51562C28.9454 3.51562 34.7776 7.57529 37.0129 13.6177C37.3497 14.5281 38.3608 14.9932 39.2715 14.6565C40.1819 14.3196 40.647 13.3085 40.3102 12.3979C38.978 8.79653 36.6112 5.71474 33.4658 3.48565C30.2482 1.20533 26.4562 0 22.5 0C17.4291 0 12.6617 1.97473 9.07603 5.5604C5.53711 9.09932 3.5688 13.7895 3.518 18.7864C1.41724 20.0036 0 22.2753 0 24.873V30.8496C0 34.7266 3.15422 37.8809 7.03125 37.8809H10.5469C11.5177 37.8809 12.3047 37.0939 12.3047 36.123V19.5996C12.3047 18.6288 11.5177 17.8418 10.5469 17.8418ZM8.78906 34.3652H7.03125C5.09273 34.3652 3.51562 32.7881 3.51562 30.8496V24.873C3.51562 22.9345 5.09273 21.3574 7.03125 21.3574H8.78906V34.3652Z" fill="white"/>
<path d="M37.9688 17.8418H34.4531C33.4823 17.8418 32.6953 18.6288 32.6953 19.5996V31.6406V36.123V37.9688C32.6953 38.938 31.9068 39.7266 30.9375 39.7266H25.5762V39.7823C24.9766 38.701 23.824 37.9688 22.5 37.9688C20.5584 37.9688 18.9844 39.5428 18.9844 41.4844C18.9844 43.426 20.5584 45 22.5 45C23.824 45 24.9766 44.2678 25.5762 43.1865V43.2422H30.9375C33.8453 43.2422 36.2109 40.8765 36.2109 37.9688V37.8809H37.9688C41.8458 37.8809 45 34.7266 45 30.8496V24.873C45 20.996 41.8458 17.8418 37.9688 17.8418ZM41.4844 30.8496C41.4844 32.7881 39.9073 34.3652 37.9688 34.3652H36.2109V31.6406V21.3574H37.9688C39.9073 21.3574 41.4844 22.9345 41.4844 24.873V30.8496Z" fill="#FF8863"/>
</svg>
