<svg width="47" height="47" viewBox="0 0 47 47" fill="none" xmlns="http://www.w3.org/2000/svg">
<path d="M45.5312 29.3746C44.7205 29.3746 44.0625 30.0326 44.0625 30.8434V41.1246H2.9375V23.4996H19.0938C19.9045 23.4996 20.5625 22.8416 20.5625 22.0309C20.5625 21.2201 19.9045 20.5621 19.0938 20.5621H2.9375V14.6871H19.0938C19.9045 14.6871 20.5625 14.0291 20.5625 13.2184C20.5625 12.4076 19.9045 11.7496 19.0938 11.7496H2.9375C1.316 11.7496 0 13.0656 0 14.6871V41.1246C0 42.7461 1.316 44.0621 2.9375 44.0621H44.0625C45.684 44.0621 47 42.7461 47 41.1246V30.8434C47 30.0326 46.342 29.3746 45.5312 29.3746Z" fill="white"/>
<path d="M13.2188 29.3746H7.34375C6.533 29.3746 5.875 30.0326 5.875 30.8434C5.875 31.6541 6.533 32.3121 7.34375 32.3121H13.2188C14.0295 32.3121 14.6875 31.6541 14.6875 30.8434C14.6875 30.0326 14.0295 29.3746 13.2188 29.3746Z" fill="white"/>
<path d="M46.1099 7.46088L35.8287 3.05463C35.4556 2.89894 35.0414 2.89894 34.6684 3.05463L24.3871 7.46088C23.8496 7.69294 23.5 8.22463 23.5 8.81213V14.6871C23.5 22.7682 26.4874 27.4917 34.5186 32.1183C34.7448 32.2475 34.9974 32.3121 35.25 32.3121C35.5026 32.3121 35.7552 32.2475 35.9814 32.1183C44.0126 27.5034 47 22.7799 47 14.6871V8.81213C47 8.22463 46.6504 7.69294 46.1099 7.46088ZM44.0625 14.6871C44.0625 21.4698 41.8183 25.2034 35.25 29.1396C28.6817 25.1946 26.4375 21.461 26.4375 14.6871V9.78151L35.25 6.00388L44.0625 9.78151V14.6871Z" fill="#FF8863"/>
<path d="M40.5757 12.0698C39.9441 11.5704 39.0218 11.6674 38.5106 12.2989L33.8929 18.074L32.0658 15.3422C31.6105 14.6665 30.6969 14.4874 30.0301 14.9339C29.3574 15.3833 29.1723 16.2969 29.6218 16.9695L32.5593 21.3758C32.8207 21.7665 33.2496 22.0074 33.7196 22.0309C33.7401 22.0309 33.7636 22.0309 33.7813 22.0309C34.2248 22.0309 34.6478 21.8311 34.9298 21.4786L40.8048 14.1349C41.3101 13.5004 41.2102 12.578 40.5757 12.0698Z" fill="#FF8863"/>
</svg>
