<svg width="27" height="45" viewBox="0 0 27 45" fill="none" xmlns="http://www.w3.org/2000/svg">
<path d="M23.94 0H2.34C1.71961 0.000714595 1.12484 0.247479 0.686159 0.686159C0.247479 1.12484 0.000714595 1.71961 0 2.34V42.66C0.000714595 43.2804 0.247479 43.8752 0.686159 44.3138C1.12484 44.7525 1.71961 44.9993 2.34 45H23.94C24.5604 44.9993 25.1552 44.7525 25.5938 44.3138C26.0325 43.8752 26.2793 43.2804 26.28 42.66V2.34C26.2793 1.71961 26.0325 1.12484 25.5938 0.686159C25.1552 0.247479 24.5604 0.000714595 23.94 0ZM1.8 2.34C1.80014 2.19683 1.85708 2.05956 1.95832 1.95832C2.05956 1.85708 2.19683 1.80014 2.34 1.8H23.94C24.0832 1.80014 24.2204 1.85708 24.3217 1.95832C24.4229 2.05956 24.4799 2.19683 24.48 2.34V5.03613H1.8V2.34ZM24.48 6.83613V36.0039H1.8V6.83613H24.48ZM24.48 42.66C24.4799 42.8032 24.4229 42.9404 24.3217 43.0417C24.2204 43.1429 24.0832 43.1998 23.94 43.2H2.34C2.19683 43.1998 2.05956 43.1429 1.95832 43.0417C1.85708 42.9404 1.80014 42.8032 1.8 42.66V37.8039H24.48V42.66Z" fill="white"/>
<path d="M10.8978 41.4019H15.4838C15.7225 41.4019 15.9515 41.3071 16.1202 41.1383C16.289 40.9695 16.3838 40.7406 16.3838 40.5019C16.3838 40.2632 16.289 40.0343 16.1202 39.8655C15.9515 39.6967 15.7225 39.6019 15.4838 39.6019H10.8978C10.6591 39.6019 10.4302 39.6967 10.2614 39.8655C10.0926 40.0343 9.9978 40.2632 9.9978 40.5019C9.9978 40.7406 10.0926 40.9695 10.2614 41.1383C10.4302 41.3071 10.6591 41.4019 10.8978 41.4019Z" fill="#FF8863"/>
<path d="M13.923 24.4644H12.393C12.0588 24.4644 11.7383 24.3316 11.502 24.0953C11.2657 23.859 11.133 23.5385 11.133 23.2043C11.133 22.8702 11.2657 22.5497 11.502 22.3134C11.7383 22.0771 12.0588 21.9444 12.393 21.9444H14.626C14.6928 21.9444 14.759 21.9579 14.8205 21.9842C14.882 22.0105 14.9375 22.0489 14.9838 22.0972C15.03 22.1455 15.066 22.2027 15.0896 22.2652C15.1132 22.3278 15.1238 22.3945 15.121 22.4613C15.1107 22.6998 15.1956 22.9326 15.357 23.1085C15.5184 23.2844 15.743 23.3889 15.9815 23.3992C16.22 23.4095 16.4527 23.3246 16.6286 23.1632C16.8045 23.0018 16.9091 22.7772 16.9194 22.5387C16.9326 22.2292 16.8831 21.9203 16.7738 21.6305C16.6646 21.3406 16.4978 21.0759 16.2835 20.8523C16.0692 20.6286 15.8119 20.4506 15.527 20.329C15.2421 20.2074 14.9355 20.1447 14.6258 20.1447H14.103V19.6047C14.103 19.366 14.0082 19.1371 13.8394 18.9683C13.6706 18.7995 13.4417 18.7047 13.203 18.7047C12.9643 18.7047 12.7354 18.7995 12.5666 18.9683C12.3978 19.1371 12.303 19.366 12.303 19.6047V20.1471C11.4993 20.1701 10.737 20.5086 10.181 21.0893C9.62491 21.6701 9.3198 22.4463 9.33163 23.2503C9.34346 24.0542 9.67127 24.8211 10.2442 25.3853C10.8171 25.9494 11.589 26.2653 12.393 26.2647H13.923C14.2571 26.2651 14.5773 26.3979 14.8136 26.6341C15.0498 26.8704 15.1826 27.1906 15.183 27.5247V27.6147C15.1826 27.9488 15.0498 28.2691 14.8136 28.5053C14.5773 28.7415 14.2571 28.8744 13.923 28.8747H11.6541C11.5882 28.8747 11.523 28.8616 11.4623 28.8361C11.4016 28.8106 11.3465 28.7733 11.3004 28.7263C11.2543 28.6793 11.218 28.6236 11.1936 28.5624C11.1692 28.5012 11.1573 28.4357 11.1586 28.3699L11.1603 28.2765C11.1624 28.1583 11.1412 28.0408 11.0979 27.9308C11.0546 27.8208 10.9901 27.7204 10.908 27.6354C10.826 27.5503 10.7279 27.4822 10.6196 27.435C10.5112 27.3879 10.3946 27.3625 10.2764 27.3604C10.1582 27.3583 10.0407 27.3794 9.93073 27.4227C9.82073 27.466 9.72033 27.5305 9.63526 27.6126C9.55019 27.6947 9.48212 27.7927 9.43493 27.9011C9.38775 28.0095 9.36238 28.1261 9.36026 28.2443L9.35864 28.3375C9.35312 28.6424 9.4084 28.9453 9.52125 29.2286C9.6341 29.5119 9.80226 29.7699 10.0159 29.9875C10.2296 30.2051 10.4844 30.3779 10.7656 30.4959C11.0468 30.6139 11.3487 30.6747 11.6536 30.6747H12.3025V31.2147C12.3025 31.4534 12.3974 31.6823 12.5661 31.8511C12.7349 32.0199 12.9638 32.1147 13.2025 32.1147C13.4412 32.1147 13.6702 32.0199 13.8389 31.8511C14.0077 31.6823 14.1025 31.4534 14.1025 31.2147V30.669C14.8812 30.6223 15.6127 30.2802 16.1479 29.7127C16.6831 29.1451 16.9816 28.3948 16.9825 27.6147V27.5247C16.9817 26.7134 16.6591 25.9356 16.0855 25.3619C15.512 24.7882 14.7343 24.4654 13.923 24.4644Z" fill="#FF8863"/>
<path d="M11.7399 16.78C12.1113 16.4086 12.6149 16.2001 13.14 16.2001C13.6651 16.2001 14.1687 16.4086 14.54 16.78C14.6236 16.8635 14.7228 16.9298 14.832 16.9751C14.9413 17.0203 15.0583 17.0436 15.1765 17.0436C15.2947 17.0436 15.4118 17.0203 15.521 16.9751C15.6302 16.9298 15.7294 16.8635 15.813 16.78C15.8966 16.6964 15.9629 16.5971 16.0081 16.4879C16.0533 16.3787 16.0766 16.2617 16.0766 16.1435C16.0766 16.0253 16.0533 15.9082 16.0081 15.799C15.9629 15.6898 15.8966 15.5906 15.813 15.507C15.462 15.1559 15.0453 14.8775 14.5866 14.6875C14.128 14.4975 13.6364 14.3997 13.14 14.3997C12.6436 14.3997 12.152 14.4975 11.6934 14.6875C11.2347 14.8775 10.818 15.1559 10.467 15.507C10.2982 15.6758 10.2034 15.9047 10.2034 16.1434C10.2034 16.3821 10.2982 16.6111 10.467 16.7799C10.6358 16.9487 10.8647 17.0435 11.1034 17.0435C11.3421 17.0435 11.5711 16.9487 11.7399 16.7799L11.7399 16.78Z" fill="#FF8863"/>
<path d="M7.41248 13.725C7.58126 13.8938 7.81018 13.9886 8.04887 13.9886C8.28756 13.9886 8.51648 13.8938 8.68526 13.725C9.27028 13.1399 9.96481 12.6758 10.7292 12.3592C11.4936 12.0425 12.3129 11.8796 13.1403 11.8796C13.9676 11.8796 14.7869 12.0425 15.5513 12.3592C16.3157 12.6758 17.0102 13.1399 17.5953 13.725C17.7653 13.8875 17.9921 13.9769 18.2273 13.9742C18.4624 13.9715 18.6872 13.8769 18.8535 13.7106C19.0197 13.5443 19.1143 13.3196 19.1169 13.0844C19.1196 12.8493 19.0301 12.6224 18.8676 12.4524C18.1154 11.7003 17.2225 11.1036 16.2397 10.6965C15.257 10.2895 14.2037 10.08 13.14 10.08C12.0763 10.08 11.023 10.2895 10.0402 10.6965C9.05749 11.1036 8.16454 11.7003 7.41239 12.4524C7.24368 12.6212 7.14891 12.8501 7.14893 13.0887C7.14894 13.3274 7.24374 13.5563 7.41248 13.725Z" fill="#FF8863"/>
</svg>
