<svg width="43" height="43" viewBox="0 0 43 43" fill="none" xmlns="http://www.w3.org/2000/svg">
<path d="M30.741 27.3789C31.2045 27.3789 31.5808 27.0026 31.5808 26.5391C31.5808 26.0755 31.2045 25.6992 30.741 25.6992C30.2774 25.6992 29.9011 26.0755 29.9011 26.5391C29.9011 27.0026 30.2774 27.3789 30.741 27.3789Z" fill="#FF8863"/>
<path d="M8.22452 26.8885C8.74516 29.1003 9.5686 31.2268 10.6722 33.2086C11.7765 35.1917 13.1507 37.0115 14.7569 38.6177L14.7838 38.645V42.1602C14.7838 42.624 15.1598 43 15.6237 43H30.7409C31.2047 43 31.5807 42.624 31.5807 42.1602V38.5482C33.7604 35.1901 34.9401 31.253 34.9401 27.2018V20.6602C34.9401 18.8079 33.433 17.3008 31.5807 17.3008C30.8895 17.3008 30.2465 17.5107 29.7117 17.8703C29.2521 16.562 28.0051 15.6211 26.5416 15.6211C25.8504 15.6211 25.2074 15.8311 24.6727 16.1906C24.213 14.8823 22.9661 13.9414 21.5026 13.9414C20.9032 13.9414 20.3281 14.0982 19.8229 14.3912V6.71875C19.8229 4.86289 18.3197 3.35938 16.4635 3.35938C14.6113 3.35938 13.1041 4.8665 13.1041 6.71875V18.8109L10.809 20.341C8.67692 21.7625 7.63795 24.3935 8.22452 26.8885ZM11.741 21.7385L13.1041 20.8294V26.5391C13.1041 27.0029 13.4801 27.3789 13.944 27.3789C14.4079 27.3789 14.7838 27.0029 14.7838 26.5391C14.7838 25.9269 14.7838 7.22528 14.7838 6.71875C14.7838 5.79263 15.5374 5.03906 16.4635 5.03906C17.3913 5.03906 18.1432 5.79099 18.1432 6.71875V23.1797C18.1432 23.6436 18.5192 24.0195 18.9831 24.0195C19.4469 24.0195 19.8229 23.6436 19.8229 23.1797V17.3008C19.8229 16.373 20.5748 15.6211 21.5026 15.6211C22.4287 15.6211 23.1823 16.3747 23.1823 17.3008V23.1797C23.1823 23.6436 23.5582 24.0195 24.0221 24.0195C24.486 24.0195 24.862 23.6436 24.862 23.1797V18.9805C24.862 18.0543 25.6155 17.3008 26.5416 17.3008C27.4678 17.3008 28.2213 18.0543 28.2213 18.9805V23.1797C28.2213 23.6436 28.5973 24.0195 29.0612 24.0195C29.5251 24.0195 29.901 23.6436 29.901 23.1797V20.6602C29.901 19.734 30.6546 18.9805 31.5807 18.9805C32.5068 18.9805 33.2604 19.734 33.2604 20.6602V27.2018C33.2604 30.9627 32.1535 34.6639 30.0421 37.831C29.9502 37.9691 29.901 38.1312 29.901 38.2969V41.3203H16.4635V38.2969C16.4635 38.0741 16.3749 37.8605 16.2175 37.7031C16.0397 37.5007 13.9407 35.6261 12.1396 32.3914C11.1118 30.5451 10.3445 28.5642 9.85927 26.504C9.43278 24.6885 10.189 22.7732 11.741 21.7385Z" fill="white"/>
<path d="M27.4799 37.1319C27.865 37.3888 28.3866 37.2861 28.6445 36.8993C30.0384 34.8096 30.9495 32.4974 31.3523 30.0267C31.4268 29.5691 31.1161 29.1373 30.6585 29.0629C30.2005 28.9881 29.7691 29.2987 29.6943 29.7564C29.3305 31.9889 28.5074 34.0783 27.2473 35.9673C26.9897 36.3531 27.0941 36.8744 27.4799 37.1319Z" fill="#FF8863"/>
<path d="M10.5847 7.55859C11.0486 7.55859 11.4246 7.18263 11.4246 6.71875C11.4246 3.94005 13.6852 1.67969 16.4636 1.67969C19.2423 1.67969 21.5027 3.94005 21.5027 6.71875C21.5027 7.18263 21.8786 7.55859 22.3425 7.55859C22.8064 7.55859 23.1824 7.18263 23.1824 6.71875C23.1824 3.01392 20.1684 0 16.4636 0C12.7588 0 9.74487 3.01392 9.74487 6.71875C9.74487 7.18263 10.1208 7.55859 10.5847 7.55859Z" fill="#FF8863"/>
</svg>
