<svg width="39" height="39" viewBox="0 0 39 39" fill="none" xmlns="http://www.w3.org/2000/svg">
<g opacity="0.8" clip-path="url(#clip0)">
<path d="M20.6133 25.3906V29.8438C21.8407 29.8438 22.8398 28.8446 22.8398 27.6172C22.8398 26.3898 21.8407 25.3906 20.6133 25.3906Z" fill="white"/>
<path d="M13.2454 0.75L15.472 5.27734H23.528L25.7546 0.75H13.2454Z" fill="white"/>
<path d="M16.1602 20.9375C16.1602 22.1649 17.1593 23.1641 18.3867 23.1641V18.7109C17.1593 18.7109 16.1602 19.7101 16.1602 20.9375Z" fill="white"/>
<path d="M25.6749 7.50391H21.3014L22.7224 10.3458L20.7307 11.3417L19.5 8.88029L18.2693 11.3417L16.2776 10.3458L17.6986 7.50391H13.3251C7.67925 12.1292 2.80078 21.7319 2.80078 27.5063C2.80078 38.713 15.3698 38.75 19.5 38.75C23.6302 38.75 36.1992 38.713 36.1992 27.5063C36.1992 21.7319 31.3207 12.1292 25.6749 7.50391ZM25.0664 27.6172C25.0664 30.0732 23.0693 32.0703 20.6133 32.0703V34.2969H18.3867V32.0703C15.9307 32.0703 13.9336 30.0732 13.9336 27.6172H16.1602C16.1602 28.8446 17.1593 29.8438 18.3867 29.8438V25.3906C15.9307 25.3906 13.9336 23.3935 13.9336 20.9375C13.9336 18.4815 15.9307 16.4844 18.3867 16.4844V14.2578H20.6133V16.4844C23.0693 16.4844 25.0664 18.4815 25.0664 20.9375H22.8398C22.8398 19.7101 21.8407 18.7109 20.6133 18.7109V23.1641C23.0693 23.1641 25.0664 25.1612 25.0664 27.6172Z" fill="white"/>
</g>
<defs>
<clipPath id="clip0">
<rect width="38" height="38" fill="white" transform="translate(0.5 0.75)"/>
</clipPath>
</defs>
</svg>
