<svg width="31" height="32" viewBox="0 0 31 32" fill="none" xmlns="http://www.w3.org/2000/svg">
<g clip-path="url(#clip0)" filter="url(#filter0_d)">
<path d="M25.1544 15.8478C23.7462 15.8478 22.3636 15.6276 21.0534 15.1946C20.4002 14.9719 19.6564 15.1447 19.2303 15.579L16.6442 17.5312C13.645 15.9303 11.7976 14.0834 10.2185 11.1068L12.1133 8.58805C12.6056 8.09642 12.7821 7.37827 12.5706 6.70444C12.1357 5.38733 11.9148 4.00536 11.9148 2.59661C11.9149 1.57892 11.087 0.750977 10.0693 0.750977H5.84542C4.82785 0.750977 3.99991 1.57892 3.99991 2.59649C3.99991 14.2613 13.4897 23.751 25.1544 23.751C26.172 23.751 27 22.923 27 21.9054V17.6934C26.9999 16.6758 26.172 15.8478 25.1544 15.8478ZM25.7222 21.9055C25.7222 22.2187 25.4676 22.4732 25.1544 22.4732C14.1941 22.4732 5.27773 13.5568 5.27773 2.59655C5.27773 2.28335 5.53228 2.02879 5.84548 2.02879H10.0694C10.3826 2.02879 10.6371 2.28335 10.6371 2.59655C10.6371 4.14198 10.8798 5.65872 11.3546 7.09562C11.4208 7.30777 11.3671 7.52735 11.1525 7.75076L8.95629 10.6594C8.80906 10.8546 8.78594 11.1161 8.89639 11.3338C10.6889 14.857 12.867 17.0352 16.4152 18.8532C16.631 18.9661 16.8956 18.9425 17.0915 18.7946L20.067 16.5404C20.2173 16.3901 20.4426 16.3364 20.646 16.4057C22.0928 16.8836 23.6096 17.1257 25.1544 17.1257C25.4676 17.1257 25.7222 17.3802 25.7222 17.6934V21.9055Z" fill="#0000FF"/>
</g>
<defs>
<filter id="filter0_d" x="-9.15527e-05" y="0.750977" width="31" height="31" filterUnits="userSpaceOnUse" color-interpolation-filters="sRGB">
<feFlood flood-opacity="0" result="BackgroundImageFix"/>
<feColorMatrix in="SourceAlpha" type="matrix" values="0 0 0 0 0 0 0 0 0 0 0 0 0 0 0 0 0 0 127 0"/>
<feOffset dy="4"/>
<feGaussianBlur stdDeviation="2"/>
<feColorMatrix type="matrix" values="0 0 0 0 0 0 0 0 0 0 0 0 0 0 1 0 0 0 0.5 0"/>
<feBlend mode="normal" in2="BackgroundImageFix" result="effect1_dropShadow"/>
<feBlend mode="normal" in="SourceGraphic" in2="effect1_dropShadow" result="shape"/>
</filter>
<clipPath id="clip0">
<rect width="23" height="23" fill="white" transform="translate(3.99991 0.750977)"/>
</clipPath>
</defs>
</svg>
