<svg width="36" height="35" viewBox="0 0 36 35" fill="none" xmlns="http://www.w3.org/2000/svg">
<g clip-path="url(#clip0)" filter="url(#filter0_d)">
<path d="M29.5391 3.32227H6.461C5.10406 3.32227 4.00006 4.42627 4.00006 5.7832V18.9082C4.00006 20.2651 5.10406 21.3691 6.461 21.3691H8.97662V25.4707C8.97662 26.149 9.75229 26.5296 10.2891 26.127L16.6329 21.3691H29.5391C30.8961 21.3691 32.0001 20.2651 32.0001 18.9082V5.7832C32.0001 4.42627 30.8961 3.32227 29.5391 3.32227ZM30.3594 18.9082C30.3594 19.3604 29.9914 19.7285 29.5391 19.7285H16.3594C16.1819 19.7285 16.0093 19.7862 15.8672 19.8926L10.6172 23.8301V20.5488C10.6172 20.0957 10.25 19.7285 9.79694 19.7285H6.461C6.00876 19.7285 5.64069 19.3604 5.64069 18.9082V5.7832C5.64069 5.33096 6.00876 4.96289 6.461 4.96289H29.5391C29.9914 4.96289 30.3594 5.33096 30.3594 5.7832V18.9082Z" fill="#0000FF"/>
<path d="M26.2032 8.24414H9.79694C9.34384 8.24414 8.97662 8.61136 8.97662 9.06445C8.97662 9.51755 9.34384 9.88477 9.79694 9.88477H26.2032C26.6563 9.88477 27.0235 9.51755 27.0235 9.06445C27.0235 8.61136 26.6563 8.24414 26.2032 8.24414Z" fill="#0000FF"/>
<path d="M20.461 12.3457C20.461 11.8926 20.0938 11.5254 19.6407 11.5254H9.79694C9.34384 11.5254 8.97662 11.8926 8.97662 12.3457C8.97662 12.7988 9.34384 13.166 9.79694 13.166H19.6407C20.0938 13.166 20.461 12.7988 20.461 12.3457Z" fill="#0000FF"/>
<path d="M26.2032 11.5254H22.9219C22.4688 11.5254 22.1016 11.8926 22.1016 12.3457C22.1016 12.7988 22.4688 13.166 22.9219 13.166H26.2032C26.6563 13.166 27.0235 12.7988 27.0235 12.3457C27.0235 11.8926 26.6563 11.5254 26.2032 11.5254Z" fill="#0000FF"/>
<path d="M14.7188 14.8066H9.79694C9.34384 14.8066 8.97662 15.1739 8.97662 15.627C8.97662 16.08 9.34384 16.4473 9.79694 16.4473H14.7188C15.1719 16.4473 15.5391 16.08 15.5391 15.627C15.5391 15.1739 15.1719 14.8066 14.7188 14.8066Z" fill="#0000FF"/>
<path d="M26.2032 14.8066H18.0001C17.547 14.8066 17.1797 15.1739 17.1797 15.627C17.1797 16.08 17.547 16.4473 18.0001 16.4473H26.2032C26.6563 16.4473 27.0235 16.08 27.0235 15.627C27.0235 15.1739 26.6563 14.8066 26.2032 14.8066Z" fill="#0000FF"/>
</g>
<defs>
<filter id="filter0_d" x="6.10352e-05" y="0.751953" width="36" height="36" filterUnits="userSpaceOnUse" color-interpolation-filters="sRGB">
<feFlood flood-opacity="0" result="BackgroundImageFix"/>
<feColorMatrix in="SourceAlpha" type="matrix" values="0 0 0 0 0 0 0 0 0 0 0 0 0 0 0 0 0 0 127 0"/>
<feOffset dy="4"/>
<feGaussianBlur stdDeviation="2"/>
<feColorMatrix type="matrix" values="0 0 0 0 0 0 0 0 0 0 0 0 0 0 1 0 0 0 0.5 0"/>
<feBlend mode="normal" in2="BackgroundImageFix" result="effect1_dropShadow"/>
<feBlend mode="normal" in="SourceGraphic" in2="effect1_dropShadow" result="shape"/>
</filter>
<clipPath id="clip0">
<rect width="28" height="28" fill="white" transform="translate(4.00006 0.751953)"/>
</clipPath>
</defs>
</svg>
