<svg width="13" height="27" viewBox="0 0 13 27" fill="none" xmlns="http://www.w3.org/2000/svg">
<path d="M11.8536 0.895056L8.91822 0.889648C5.62039 0.889648 3.48919 3.40029 3.48919 7.28617V10.2354H0.537767C0.282729 10.2354 0.0762024 10.4728 0.0762024 10.7656V15.0387C0.0762024 15.3316 0.282965 15.5687 0.537767 15.5687H3.48919V26.3511C3.48919 26.6439 3.69571 26.8811 3.95075 26.8811H7.80152C8.05655 26.8811 8.26308 26.6436 8.26308 26.3511V15.5687H11.714C11.969 15.5687 12.1755 15.3316 12.1755 15.0387L12.177 10.7656C12.177 10.625 12.1282 10.4904 12.0418 10.3909C11.9554 10.2914 11.8376 10.2354 11.7152 10.2354H8.26308V7.7353C8.26308 6.53365 8.51247 5.92364 9.87573 5.92364L11.8532 5.92282C12.108 5.92282 12.3145 5.68542 12.3145 5.39285V1.42504C12.3145 1.13274 12.1082 0.895597 11.8536 0.895056Z" fill="white"/>
</svg>
