<svg width="24" height="24" viewBox="0 0 24 24" fill="none" xmlns="http://www.w3.org/2000/svg">
<g opacity="0.8" clip-path="url(#clip0)">
<path d="M3.51319 0.368164H20.5414C22.1585 0.368164 23.4816 1.56543 23.4816 3.30839V20.337C23.4816 22.08 22.1585 23.2773 20.5414 23.2773H3.51319C1.89559 23.2773 0.572723 22.08 0.572723 20.337V3.30839C0.572723 1.56543 1.89559 0.368164 3.51319 0.368164ZM17.261 2.91346C16.6936 2.91346 16.23 3.37731 16.23 3.94489V6.41351C16.23 6.98086 16.6936 7.44494 17.261 7.44494H19.8503C20.4176 7.44494 20.8817 6.98086 20.8817 6.41351V3.94489C20.8817 3.37731 20.4176 2.91346 19.8503 2.91346H17.261ZM20.8925 10.0563H18.8762C19.067 10.6792 19.1703 11.339 19.1703 12.0216C19.1703 15.8321 15.9816 18.921 12.049 18.921C8.11665 18.921 4.9285 15.8321 4.9285 12.0216C4.9285 11.3385 5.03152 10.679 5.22252 10.0563H3.11849V19.7335C3.11849 20.2342 3.52824 20.6442 4.02926 20.6442H19.9822C20.4833 20.6442 20.893 20.2345 20.893 19.7335V10.0563H20.8925ZM12.0488 7.31487C9.50796 7.31487 7.44792 9.31069 7.44792 11.773C7.44792 14.2352 9.50796 16.2311 12.0488 16.2311C14.5899 16.2311 16.6501 14.2352 16.6501 11.773C16.6501 9.31069 14.5901 7.31487 12.0488 7.31487Z" fill="white"/>
</g>
<defs>
<clipPath id="clip0">
<rect width="22.9091" height="22.9091" fill="white" transform="translate(0.572723 0.368164)"/>
</clipPath>
</defs>
</svg>
