<svg width="42" height="42" viewBox="0 0 42 42" fill="none" xmlns="http://www.w3.org/2000/svg">
<g opacity="0.8" clip-path="url(#clip0)">
<path d="M32.7748 1.89783V1.89359C32.047 1.16201 31.0578 0.750424 30.0259 0.75H11.9698C9.82528 0.756989 8.0886 2.49366 8.08161 4.63822V37.8575C8.08204 38.8894 8.49363 39.8786 9.22521 40.6064C9.95192 41.3369 10.9394 41.7484 11.9698 41.75H30.0302C31.0606 41.7484 32.0481 41.3369 32.7748 40.6064C33.5053 39.8797 33.9168 38.8922 33.9184 37.8618V4.64246C33.9168 3.61206 33.5053 2.62454 32.7748 1.89783ZM21 39.1113C20.4198 39.1113 19.9496 38.641 19.9496 38.0608C19.9496 37.4807 20.4198 37.0104 21 37.0104C21.5802 37.0104 22.0504 37.4807 22.0504 38.0608C22.0504 38.641 21.5802 39.1113 21 39.1113ZM30.8307 32.5165C30.8307 33.9201 29.6929 35.0578 28.2894 35.0578H13.7064C12.3029 35.0578 11.1651 33.9201 11.1651 32.5165V7.75981C11.1651 6.35626 12.3029 5.21849 13.7064 5.21849H28.2936C29.6971 5.21849 30.8349 6.35626 30.8349 7.75981L30.8307 32.5165Z" fill="white"/>
</g>
<defs>
<clipPath id="clip0">
<rect width="41" height="41" fill="white" transform="translate(0.5 0.75)"/>
</clipPath>
</defs>
</svg>
