<svg width="31" height="34" viewBox="0 0 31 34" fill="none" xmlns="http://www.w3.org/2000/svg">
<g clip-path="url(#clip0)" filter="url(#filter0_d)">
<path d="M14.1124 8.27418C14.1127 8.27413 14.113 8.27413 14.1133 8.27408C14.1643 8.2666 14.1437 8.26958 14.1124 8.27418Z" fill="#0000FF"/>
<path d="M25.0214 19.16V17.6953C25.0214 13.6047 22.4283 10.1086 18.7997 8.76372C19.0336 8.40835 19.162 7.98882 19.162 7.55381C19.162 6.54214 18.4936 5.66055 17.5638 5.38589C18.5652 4.36567 19.162 2.96138 19.162 1.48438V0.751953H11.8378V1.48438C11.8378 2.96138 12.4346 4.36567 13.436 5.38589C12.5062 5.66055 11.8378 6.54214 11.8378 7.55381C11.8378 7.98882 11.9662 8.40835 12.2001 8.76372C8.57149 10.1086 5.97842 13.6047 5.97842 17.6953V19.16C5.08135 19.8356 4.51358 20.893 4.51358 22.0898C4.51358 24.1137 6.15147 25.752 8.17569 25.752H22.8243C24.8482 25.7519 26.4862 24.114 26.4862 22.0898C26.4862 20.8929 25.9184 19.8355 25.0214 19.16ZM13.369 2.2168H17.6308C17.4138 3.40532 16.6787 4.45747 15.6283 5.04063H15.3716C14.3211 4.45747 13.5861 3.40532 13.369 2.2168ZM13.9488 6.76924C14.459 6.69688 14.9809 6.66016 15.4999 6.66016C16.0189 6.66016 16.5408 6.69688 17.051 6.76924C17.4073 6.81978 17.6972 7.17173 17.6972 7.55381C17.6972 7.76792 17.6047 7.97061 17.4436 8.10991C17.287 8.24536 17.0892 8.30371 16.8865 8.27417C15.9696 8.14023 15.0302 8.14033 14.1133 8.27417C13.9904 8.29204 14.0642 8.28125 14.1124 8.27427C13.9101 8.30347 13.7127 8.24521 13.5562 8.10991C13.3951 7.97056 13.3026 7.76787 13.3026 7.55381C13.3026 7.17178 13.5925 6.81982 13.9488 6.76924ZM22.8241 24.2871H8.17569C6.96129 24.2871 5.97842 23.3043 5.97842 22.0898C5.97842 20.8754 6.96119 19.8926 8.17569 19.8926C8.7626 19.8926 9.31436 20.1211 9.7294 20.5361L10.7652 19.5003C10.0735 18.8086 9.15386 18.4277 8.17569 18.4277C7.92681 18.4277 7.68179 18.4527 7.44327 18.5008V17.6953C7.44327 13.6265 10.4752 10.2531 14.3983 9.71431C14.4509 9.70713 15.8714 9.6147 16.6017 9.71436C20.5247 10.2532 23.5565 13.6266 23.5565 17.6953V18.5009C23.318 18.4527 23.073 18.4278 22.8241 18.4278C21.846 18.4278 20.9263 18.8087 20.2346 19.5004L21.2704 20.5362C21.6855 20.1211 22.2372 19.8926 22.8241 19.8926C24.0385 19.8926 25.0214 20.8753 25.0214 22.0898C25.0214 23.3042 24.0386 24.2871 22.8241 24.2871Z" fill="#0000FF"/>
<path d="M15.4999 16.9629C15.0961 16.9629 14.7675 16.6343 14.7675 16.2305C14.7675 15.8266 15.0961 15.498 15.4999 15.498C15.9038 15.498 16.2323 15.8266 16.2323 16.2305H17.6972C17.6972 15.2756 17.0848 14.4615 16.2323 14.1592V12.5684H14.7675V14.1592C13.915 14.4615 13.3026 15.2756 13.3026 16.2305C13.3026 17.442 14.2883 18.4277 15.4999 18.4277C15.9038 18.4277 16.2323 18.7563 16.2323 19.1602C16.2323 19.564 15.9038 19.8926 15.4999 19.8926C15.0961 19.8926 14.7675 19.564 14.7675 19.1602H13.3026C13.3026 20.115 13.915 20.9291 14.7675 21.2314V22.8223H16.2323V21.2314C17.0848 20.9291 17.6972 20.115 17.6972 19.1602C17.6972 17.9486 16.7115 16.9629 15.4999 16.9629Z" fill="#0000FF"/>
</g>
<defs>
<filter id="filter0_d" x="-1.00009" y="0.751953" width="33" height="33" filterUnits="userSpaceOnUse" color-interpolation-filters="sRGB">
<feFlood flood-opacity="0" result="BackgroundImageFix"/>
<feColorMatrix in="SourceAlpha" type="matrix" values="0 0 0 0 0 0 0 0 0 0 0 0 0 0 0 0 0 0 127 0"/>
<feOffset dy="4"/>
<feGaussianBlur stdDeviation="2"/>
<feColorMatrix type="matrix" values="0 0 0 0 0 0 0 0 0 0 0 0 0 0 1 0 0 0 0.5 0"/>
<feBlend mode="normal" in2="BackgroundImageFix" result="effect1_dropShadow"/>
<feBlend mode="normal" in="SourceGraphic" in2="effect1_dropShadow" result="shape"/>
</filter>
<clipPath id="clip0">
<rect width="25" height="25" fill="white" transform="translate(2.99991 0.751953)"/>
</clipPath>
</defs>
</svg>
