<svg width="45" height="45" viewBox="0 0 45 45" fill="none" xmlns="http://www.w3.org/2000/svg">
<g opacity="0.8" clip-path="url(#clip0)">
<path d="M33.9517 29.8571C32.5143 28.438 30.7197 28.438 29.2914 29.8571C28.2018 30.9375 27.1122 32.018 26.041 33.1167C25.748 33.4188 25.5008 33.4829 25.1437 33.2815C24.4387 32.8969 23.6879 32.5856 23.0103 32.1645C19.8515 30.1776 17.2055 27.6231 14.8615 24.7481C13.6987 23.3198 12.6641 21.7907 11.9408 20.0694C11.7943 19.7215 11.8217 19.4926 12.1056 19.2087C13.1951 18.1558 14.2572 17.0754 15.3285 15.995C16.8209 14.4934 16.8209 12.7355 15.3193 11.2247C14.4678 10.3641 13.6163 9.5217 12.7648 8.66104C11.8858 7.78207 11.016 6.89394 10.1279 6.02412C8.69039 4.62325 6.89581 4.62325 5.46748 6.03327C4.36876 7.11368 3.31582 8.22155 2.19879 9.28365C1.16417 10.2633 0.642277 11.4628 0.532406 12.8636C0.358442 15.1435 0.916957 17.2951 1.70437 19.3919C3.31582 23.7318 5.76963 27.5865 8.74532 31.1207C12.7648 35.9001 17.5625 39.6815 23.1752 42.41C25.7022 43.6369 28.3208 44.58 31.1683 44.7356C33.1277 44.8455 34.8307 44.3511 36.195 42.822C37.1289 41.7782 38.1818 40.826 39.1707 39.828C40.6356 38.3447 40.6448 36.5502 39.189 35.0852C37.4493 33.3364 35.7005 31.5968 33.9517 29.8571Z" fill="white"/>
<path d="M32.2029 22.5598L35.5815 21.983C35.0505 18.8791 33.5855 16.0683 31.3606 13.8342C29.0075 11.4811 26.0318 9.99784 22.754 9.54004L22.2779 12.9369C24.8141 13.294 27.1214 14.4385 28.9434 16.2605C30.6647 17.9819 31.7909 20.161 32.2029 22.5598Z" fill="white"/>
<path d="M37.4859 7.87336C33.5855 3.97291 28.6504 1.50995 23.2026 0.75L22.7265 4.14687C27.4327 4.8061 31.6994 6.93945 35.0688 10.2997C38.2642 13.4951 40.3609 17.5329 41.1209 21.9736L44.4994 21.3967C43.6113 16.2511 41.185 11.5815 37.4859 7.87336Z" fill="white"/>
</g>
<defs>
<clipPath id="clip0">
<rect width="44" height="44" fill="white" transform="translate(0.5 0.75)"/>
</clipPath>
</defs>
</svg>
