<svg width="416" height="374" viewBox="0 0 416 374" fill="none" xmlns="http://www.w3.org/2000/svg">
<g clip-path="url(#clip0)">
<g opacity="0.3">
<path opacity="0.3" d="M126.5 297.784V286.694L123.558 284.969C122.823 290.144 116.695 293.594 111.547 294.333L76.7374 314.788L61.5389 320.209L13.2471 295.319L14.4728 294.58C10.3054 292.608 8.09922 288.172 5.893 284.229L2.70623 286.201L0.5 286.694V298.03C0.5 300.248 1.97082 302.466 4.66732 303.944L53.2043 332.038C58.8424 335.242 68.1576 335.242 73.7957 332.038L122.333 303.944C125.029 302.219 126.5 300.248 126.5 298.03C126.5 298.03 126.5 298.03 126.5 297.784Z" fill="url(#paint0_linear)"/>
<path opacity="0.3" d="M111.547 294.58L76.7374 315.034L63.5 319.717V334.749C67.1771 334.749 70.8541 334.01 73.7957 332.285L122.333 304.191C125.029 302.466 126.5 300.495 126.5 298.277V298.03V286.941L123.804 285.462H123.558C122.578 290.391 116.449 293.841 111.547 294.58Z" fill="#0F054C"/>
<g opacity="0.3">
<path opacity="0.3" d="M53.2043 320.949L4.66732 292.855C-0.970812 289.652 -0.970812 284.23 4.66732 280.78L53.2043 252.686C58.8424 249.482 68.1576 249.482 73.7957 252.686L122.333 280.78C127.971 283.984 127.971 289.405 122.333 292.855L73.7957 320.949C68.1576 324.153 58.8424 324.153 53.2043 320.949Z" fill="url(#paint1_linear)"/>
</g>
<g opacity="0.3">
<path opacity="0.3" d="M53.2043 320.949L4.66732 292.855C-0.970812 289.652 -0.970812 284.23 4.66732 280.78L53.2043 252.686C58.8424 249.482 68.1576 249.482 73.7957 252.686L122.333 280.78C127.971 283.984 127.971 289.405 122.333 292.855L73.7957 320.949C68.1576 324.153 58.8424 324.153 53.2043 320.949Z" fill="#0F054C"/>
</g>
</g>
<path d="M63.5 287.187C60.0681 287.187 56.8813 286.448 54.43 284.969L5.893 256.875C3.44164 255.396 1.97083 253.425 1.97083 251.207C1.97083 248.989 3.44164 247.018 5.893 245.539L54.43 217.692C59.5778 214.734 67.6673 214.734 72.8152 217.692L121.352 245.785C123.804 247.264 125.274 249.236 125.274 251.453C125.274 253.671 123.804 255.643 121.352 257.122L72.5701 284.969C70.1187 286.448 66.9319 287.187 63.5 287.187ZM63.5 216.213C60.3132 216.213 57.1265 216.952 54.6751 218.184L6.38328 246.525C4.17705 247.757 2.95137 249.482 2.95137 251.453C2.95137 253.179 4.17705 254.904 6.38328 256.382L54.9202 284.476C59.823 287.187 67.4222 287.187 72.3249 284.476L120.862 256.382C123.068 255.15 124.294 253.425 124.294 251.453C124.294 249.728 123.068 248.003 120.862 246.525L72.3249 218.431C69.8736 216.952 66.6868 216.213 63.5 216.213Z" fill="#FF8863"/>
<path opacity="0.4" d="M126.5 240.611V223.853L123.558 222.128C122.823 227.304 116.695 230.754 111.547 231.493L76.7374 251.947L61.5389 257.369L13.2471 232.232L14.4728 231.493C10.3054 229.521 8.09922 225.086 5.893 221.143L2.46109 223.114L0.5 223.853V240.858C0.5 243.076 1.97082 245.293 4.66732 246.772L53.2043 274.866C58.8424 278.07 68.1576 278.07 73.7957 274.866L122.333 246.772C125.029 245.047 126.5 243.076 126.5 240.858C126.5 240.611 126.5 240.611 126.5 240.611Z" fill="#FF8863"/>
<path d="M126.5 225.578V214.488L123.558 212.763C122.823 217.938 116.695 221.388 111.547 222.127L76.7374 242.828L61.5389 248.25L13.2471 223.113L14.4728 222.374C10.0603 220.649 7.85409 216.213 5.64786 212.023L2.46109 213.995L0.5 214.488V225.824C0.5 228.042 1.97082 230.26 4.66732 231.738L53.2043 260.079C58.8424 263.282 68.1576 263.282 73.7957 260.079L122.333 231.985C125.029 230.26 126.5 228.288 126.5 226.07C126.5 225.824 126.5 225.824 126.5 225.578Z" fill="url(#paint2_linear)"/>
<path opacity="0.3" d="M111.547 222.374L76.7374 242.828L63.5 247.511V262.543C67.1771 262.543 70.8541 261.804 73.7957 260.079L122.333 231.985C125.029 230.26 126.5 228.289 126.5 226.071V225.824V214.734L123.804 213.256H123.558C122.578 218.185 116.449 221.635 111.547 222.374Z" fill="#0F054C"/>
<path d="M14.2276 222.374L60.0681 195.759C61.784 194.774 64.7257 194.774 66.6868 195.759L111.792 221.882L111.302 222.128C116.449 221.389 122.578 217.939 123.313 212.763L72.8152 184.67L58.107 180.727L46.0953 187.873L5.64786 212.024C7.85408 216.214 10.0603 220.649 14.2276 222.374Z" fill="url(#paint3_linear)"/>
<path opacity="0.3" d="M63.5 182.205L58.107 180.727L46.0953 187.873L5.64786 212.024C7.85408 216.214 10.0603 220.649 14.2276 222.374L60.0681 195.759C61.0486 195.266 62.2743 195.02 63.2549 195.02V182.205H63.5Z" fill="#0F054C"/>
<path d="M53.2043 248.743L4.66732 220.649C-0.970812 217.446 -0.970812 212.024 4.66732 208.574L53.2043 180.48C58.8424 177.276 68.1576 177.276 73.7957 180.48L122.333 208.574C127.971 211.777 127.971 217.199 122.333 220.403L73.7957 248.743C68.1576 251.947 58.8424 251.947 53.2043 248.743ZM66.9319 184.669C65.2159 183.684 62.2743 183.684 60.3132 184.669L11.7763 212.763C10.0603 213.749 10.0603 215.474 11.7763 216.706L60.3132 244.8C62.0292 245.786 64.9708 245.786 66.9319 244.8L115.469 216.706C117.185 215.72 117.185 213.995 115.469 212.763L66.9319 184.669Z" fill="url(#paint4_linear)"/>
<path d="M115.224 212.763L66.9319 184.669C65.2159 183.683 62.2743 183.683 60.3132 184.669L11.7762 212.763C10.5506 213.502 10.0603 214.488 10.5506 215.474C10.7957 214.981 11.0408 214.488 11.7762 214.241L60.3132 186.148C62.0291 185.162 64.9708 185.162 66.9319 186.148L115.469 214.241C115.959 214.488 116.449 214.981 116.695 215.474C116.94 214.488 116.449 213.502 115.224 212.763Z" fill="white"/>
<path d="M122.333 220.649L73.7957 248.743C68.1576 251.946 58.8424 251.946 53.2043 248.743L4.6673 220.649C2.21594 219.17 0.74512 217.199 0.499984 215.474C0.254848 217.938 1.48053 220.402 4.6673 222.127L53.2043 250.221C58.8424 253.425 68.1576 253.425 73.7957 250.221L122.333 222.127C125.519 220.402 126.99 217.938 126.5 215.474C126.255 217.199 124.784 219.17 122.333 220.649Z" fill="white"/>
<path d="M54.6751 248.003L6.13815 219.91C1.23542 216.952 1.23542 212.516 6.13815 209.559L54.6751 181.219C59.5778 178.262 67.6673 178.262 72.5701 181.219L121.107 209.313C126.01 212.27 126.01 216.706 121.107 219.663L72.5701 248.003C67.6673 250.714 59.5778 250.714 54.6751 248.003ZM68.1576 183.683C65.7062 182.205 61.2938 182.205 58.8424 183.683L10.3055 212.024C7.8541 213.502 7.8541 215.967 10.3055 217.445L58.8424 245.539C61.2938 247.018 65.7062 247.018 68.1576 245.539L116.695 217.445C119.146 215.967 119.146 213.502 116.695 212.024L68.1576 183.683Z" fill="url(#paint5_linear)"/>
<path opacity="0.4" d="M66.9319 184.67C65.216 183.684 62.2743 183.684 60.3133 184.67L11.7763 212.764C10.0603 213.75 10.0603 215.475 11.7763 216.707L60.3133 244.801C62.0292 245.786 64.9708 245.786 66.9319 244.801L115.469 216.707C117.185 215.721 117.185 213.996 115.469 212.764L66.9319 184.67Z" fill="#FF8863"/>
<path opacity="0.5" d="M116.695 214.488V40.75H10.3055V214.488C10.3055 215.228 10.7957 215.967 11.7763 216.46L60.3132 244.554C62.0292 245.54 64.9708 245.54 66.9319 244.554L115.469 216.46C116.204 215.967 116.695 215.228 116.695 214.488Z" fill="url(#paint6_linear)"/>
</g>
<g clip-path="url(#clip1)">
<g opacity="0.3">
<path opacity="0.3" d="M271.5 336.909V325.857L268.535 324.138C267.794 329.296 261.617 332.734 256.428 333.471L221.342 353.856L206.023 359.259L157.348 334.453L158.584 333.717C154.383 331.752 152.16 327.331 149.936 323.401L146.724 325.366L144.5 325.857V337.155C144.5 339.365 145.982 341.576 148.7 343.049L197.623 371.048C203.305 374.24 212.695 374.24 218.377 371.048L267.3 343.049C270.018 341.33 271.5 339.365 271.5 337.155C271.5 337.155 271.5 337.155 271.5 336.909Z" fill="url(#paint7_linear)"/>
<path opacity="0.3" d="M256.428 333.717L221.342 354.102L208 358.768V373.75C211.706 373.75 215.412 373.013 218.377 371.294L267.3 343.295C270.018 341.576 271.5 339.611 271.5 337.401V337.155V326.103L268.782 324.63H268.535C267.547 329.542 261.37 332.98 256.428 333.717Z" fill="#0F054C"/>
<g opacity="0.3">
<path opacity="0.3" d="M197.623 359.996L148.7 331.998C143.018 328.805 143.018 323.402 148.7 319.963L197.623 291.965C203.305 288.772 212.695 288.772 218.377 291.965L267.3 319.963C272.983 323.156 272.983 328.559 267.3 331.998L218.377 359.996C212.695 363.189 203.305 363.189 197.623 359.996Z" fill="url(#paint8_linear)"/>
</g>
<g opacity="0.3">
<path opacity="0.3" d="M197.623 359.996L148.7 331.998C143.018 328.805 143.018 323.402 148.7 319.963L197.623 291.965C203.305 288.772 212.695 288.772 218.377 291.965L267.3 319.963C272.983 323.156 272.983 328.559 267.3 331.998L218.377 359.996C212.695 363.189 203.305 363.189 197.623 359.996Z" fill="#0F054C"/>
</g>
</g>
<path d="M208 326.349C204.541 326.349 201.329 325.612 198.858 324.139L149.936 296.141C147.465 294.667 145.982 292.702 145.982 290.492C145.982 288.281 147.465 286.317 149.936 284.843L198.858 257.09C204.047 254.143 212.2 254.143 217.389 257.09L266.311 285.089C268.782 286.562 270.265 288.527 270.265 290.737C270.265 292.948 268.782 294.913 266.311 296.386L217.142 324.139C214.671 325.612 211.459 326.349 208 326.349ZM208 255.617C204.788 255.617 201.576 256.353 199.105 257.581L150.43 285.825C148.206 287.053 146.971 288.773 146.971 290.737C146.971 292.457 148.206 294.176 150.43 295.649L199.352 323.648C204.294 326.349 211.953 326.349 216.895 323.648L265.817 295.649C268.041 294.421 269.276 292.702 269.276 290.737C269.276 289.018 268.041 287.299 265.817 285.825L216.895 257.827C214.424 256.353 211.212 255.617 208 255.617Z" fill="#FF8863"/>
<path opacity="0.4" d="M271.5 279.932V263.231L268.535 261.512C267.794 266.669 261.617 270.108 256.428 270.844L221.342 291.229L206.023 296.632L157.348 271.581L158.584 270.844C154.383 268.88 152.16 264.459 149.936 260.529L146.477 262.494L144.5 263.231V280.177C144.5 282.388 145.982 284.598 148.7 286.072L197.623 314.07C203.305 317.263 212.695 317.263 218.377 314.07L267.3 286.072C270.018 284.352 271.5 282.388 271.5 280.177C271.5 279.932 271.5 279.932 271.5 279.932Z" fill="#FF8863"/>
<path d="M271.5 264.949V253.897L268.535 252.178C267.794 257.336 261.617 260.774 256.428 261.511L221.342 282.141L206.023 287.544L157.348 262.493L158.584 261.757C154.136 260.037 151.912 255.617 149.689 251.441L146.477 253.406L144.5 253.897V265.195C144.5 267.405 145.982 269.616 148.7 271.089L197.623 299.333C203.305 302.526 212.695 302.526 218.377 299.333L267.3 271.335C270.018 269.616 271.5 267.651 271.5 265.441C271.5 265.195 271.5 265.195 271.5 264.949Z" fill="url(#paint9_linear)"/>
<path opacity="0.3" d="M256.428 261.757L221.342 282.142L208 286.808V301.79C211.706 301.79 215.412 301.053 218.377 299.334L267.3 271.335C270.018 269.616 271.5 267.651 271.5 265.441V265.195V254.144L268.782 252.67H268.535C267.547 257.582 261.37 261.02 256.428 261.757Z" fill="#0F054C"/>
<path d="M158.337 261.757L204.541 235.233C206.27 234.25 209.235 234.25 211.212 235.233L256.675 261.266L256.181 261.512C261.37 260.775 267.547 257.336 268.288 252.179L217.389 224.181L202.564 220.251L190.457 227.373L149.689 251.442C151.912 255.617 154.136 260.038 158.337 261.757Z" fill="url(#paint10_linear)"/>
<path opacity="0.3" d="M208 221.725L202.564 220.251L190.457 227.373L149.689 251.442C151.912 255.617 154.136 260.038 158.337 261.757L204.541 235.233C205.529 234.741 206.765 234.496 207.753 234.496V221.725H208Z" fill="#0F054C"/>
<path d="M197.623 288.036L148.7 260.038C143.018 256.845 143.018 251.442 148.7 248.003L197.623 220.005C203.305 216.812 212.695 216.812 218.377 220.005L267.3 248.003C272.983 251.196 272.983 256.599 267.3 259.792L218.377 288.036C212.695 291.229 203.305 291.229 197.623 288.036ZM211.459 224.18C209.73 223.198 206.765 223.198 204.788 224.18L155.866 252.178C154.136 253.161 154.136 254.88 155.866 256.108L204.788 284.106C206.518 285.089 209.482 285.089 211.459 284.106L260.381 256.108C262.111 255.126 262.111 253.406 260.381 252.178L211.459 224.18Z" fill="url(#paint11_linear)"/>
<path d="M260.134 252.178L211.459 224.18C209.73 223.198 206.765 223.198 204.788 224.18L155.866 252.178C154.63 252.915 154.136 253.898 154.63 254.88C154.877 254.389 155.124 253.898 155.866 253.652L204.788 225.654C206.517 224.671 209.482 224.671 211.459 225.654L260.381 253.652C260.875 253.898 261.37 254.389 261.617 254.88C261.864 253.898 261.37 252.915 260.134 252.178Z" fill="white"/>
<path d="M267.3 260.037L218.377 288.036C212.695 291.229 203.305 291.229 197.623 288.036L148.7 260.037C146.23 258.564 144.747 256.599 144.5 254.88C144.253 257.336 145.488 259.792 148.7 261.511L197.623 289.509C203.305 292.702 212.695 292.702 218.377 289.509L267.3 261.511C270.512 259.792 271.994 257.336 271.5 254.88C271.253 256.599 269.77 258.564 267.3 260.037Z" fill="white"/>
<path d="M199.105 287.299L150.183 259.301C145.241 256.354 145.241 251.933 150.183 248.986L199.105 220.742C204.047 217.794 212.2 217.794 217.142 220.742L266.064 248.74C271.006 251.687 271.006 256.108 266.064 259.055L217.142 287.299C212.2 290.001 204.047 290.001 199.105 287.299ZM212.695 223.198C210.224 221.724 205.776 221.724 203.305 223.198L154.383 251.442C151.912 252.915 151.912 255.371 154.383 256.845L203.305 284.843C205.776 286.317 210.224 286.317 212.695 284.843L261.617 256.845C264.088 255.371 264.088 252.915 261.617 251.442L212.695 223.198Z" fill="url(#paint12_linear)"/>
<path opacity="0.4" d="M211.459 224.18C209.73 223.198 206.765 223.198 204.788 224.18L155.866 252.178C154.136 253.161 154.136 254.88 155.866 256.108L204.788 284.106C206.518 285.089 209.483 285.089 211.459 284.106L260.381 256.108C262.111 255.126 262.111 253.406 260.381 252.178L211.459 224.18Z" fill="#FF8863"/>
<path opacity="0.5" d="M261.617 253.898V80.75H154.383V253.898C154.383 254.634 154.877 255.371 155.866 255.862L204.788 283.861C206.518 284.843 209.482 284.843 211.459 283.861L260.381 255.862C261.123 255.371 261.617 254.634 261.617 253.898Z" fill="url(#paint13_linear)"/>
</g>
<g clip-path="url(#clip2)">
<g opacity="0.3">
<path opacity="0.3" d="M415.5 297.784V286.694L412.558 284.969C411.823 290.144 405.695 293.594 400.547 294.333L365.737 314.788L350.539 320.209L302.247 295.319L303.473 294.58C299.305 292.608 297.099 288.172 294.893 284.229L291.706 286.201L289.5 286.694V298.03C289.5 300.248 290.971 302.466 293.667 303.944L342.204 332.038C347.842 335.242 357.158 335.242 362.796 332.038L411.333 303.944C414.029 302.219 415.5 300.248 415.5 298.03C415.5 298.03 415.5 298.03 415.5 297.784Z" fill="url(#paint14_linear)"/>
<path opacity="0.3" d="M400.547 294.58L365.737 315.034L352.5 319.717V334.749C356.177 334.749 359.854 334.01 362.796 332.285L411.333 304.191C414.029 302.466 415.5 300.495 415.5 298.277V298.03V286.941L412.804 285.462H412.558C411.578 290.391 405.449 293.841 400.547 294.58Z" fill="#0F054C"/>
<g opacity="0.3">
<path opacity="0.3" d="M342.204 320.949L293.667 292.855C288.029 289.652 288.029 284.23 293.667 280.78L342.204 252.686C347.842 249.482 357.158 249.482 362.796 252.686L411.333 280.78C416.971 283.984 416.971 289.405 411.333 292.855L362.796 320.949C357.158 324.153 347.842 324.153 342.204 320.949Z" fill="url(#paint15_linear)"/>
</g>
<g opacity="0.3">
<path opacity="0.3" d="M342.204 320.949L293.667 292.855C288.029 289.652 288.029 284.23 293.667 280.78L342.204 252.686C347.842 249.482 357.158 249.482 362.796 252.686L411.333 280.78C416.971 283.984 416.971 289.405 411.333 292.855L362.796 320.949C357.158 324.153 347.842 324.153 342.204 320.949Z" fill="#0F054C"/>
</g>
</g>
<path d="M352.5 287.187C349.068 287.187 345.881 286.448 343.43 284.969L294.893 256.875C292.442 255.396 290.971 253.425 290.971 251.207C290.971 248.989 292.442 247.018 294.893 245.539L343.43 217.692C348.578 214.734 356.667 214.734 361.815 217.692L410.352 245.785C412.804 247.264 414.274 249.236 414.274 251.453C414.274 253.671 412.804 255.643 410.352 257.122L361.57 284.969C359.119 286.448 355.932 287.187 352.5 287.187ZM352.5 216.213C349.313 216.213 346.126 216.952 343.675 218.184L295.383 246.525C293.177 247.757 291.951 249.482 291.951 251.453C291.951 253.179 293.177 254.904 295.383 256.382L343.92 284.476C348.823 287.187 356.422 287.187 361.325 284.476L409.862 256.382C412.068 255.15 413.294 253.425 413.294 251.453C413.294 249.728 412.068 248.003 409.862 246.525L361.325 218.431C358.874 216.952 355.687 216.213 352.5 216.213Z" fill="#FF8863"/>
<path opacity="0.4" d="M415.5 240.611V223.853L412.558 222.128C411.823 227.304 405.695 230.754 400.547 231.493L365.737 251.947L350.539 257.369L302.247 232.232L303.473 231.493C299.305 229.521 297.099 225.086 294.893 221.143L291.461 223.114L289.5 223.853V240.858C289.5 243.076 290.971 245.293 293.667 246.772L342.204 274.866C347.842 278.07 357.158 278.07 362.796 274.866L411.333 246.772C414.029 245.047 415.5 243.076 415.5 240.858C415.5 240.611 415.5 240.611 415.5 240.611Z" fill="#FF8863"/>
<path d="M415.5 225.578V214.488L412.558 212.763C411.823 217.938 405.695 221.388 400.547 222.127L365.737 242.828L350.539 248.25L302.247 223.113L303.473 222.374C299.06 220.649 296.854 216.213 294.648 212.023L291.461 213.995L289.5 214.488V225.824C289.5 228.042 290.971 230.26 293.667 231.738L342.204 260.079C347.842 263.282 357.158 263.282 362.796 260.079L411.333 231.985C414.029 230.26 415.5 228.288 415.5 226.07C415.5 225.824 415.5 225.824 415.5 225.578Z" fill="url(#paint16_linear)"/>
<path opacity="0.3" d="M400.547 222.374L365.737 242.828L352.5 247.511V262.543C356.177 262.543 359.854 261.804 362.796 260.079L411.333 231.985C414.029 230.26 415.5 228.289 415.5 226.071V225.824V214.734L412.804 213.256H412.558C411.578 218.185 405.449 221.635 400.547 222.374Z" fill="#0F054C"/>
<path d="M303.228 222.374L349.068 195.759C350.784 194.774 353.726 194.774 355.687 195.759L400.792 221.882L400.302 222.128C405.449 221.389 411.578 217.939 412.313 212.763L361.815 184.67L347.107 180.727L335.095 187.873L294.648 212.024C296.854 216.214 299.06 220.649 303.228 222.374Z" fill="url(#paint17_linear)"/>
<path opacity="0.3" d="M352.5 182.205L347.107 180.727L335.095 187.873L294.648 212.024C296.854 216.214 299.06 220.649 303.228 222.374L349.068 195.759C350.049 195.266 351.274 195.02 352.255 195.02V182.205H352.5Z" fill="#0F054C"/>
<path d="M342.204 248.743L293.667 220.649C288.029 217.446 288.029 212.024 293.667 208.574L342.204 180.48C347.842 177.276 357.158 177.276 362.796 180.48L411.333 208.574C416.971 211.777 416.971 217.199 411.333 220.403L362.796 248.743C357.158 251.947 347.842 251.947 342.204 248.743ZM355.932 184.669C354.216 183.684 351.274 183.684 349.313 184.669L300.776 212.763C299.06 213.749 299.06 215.474 300.776 216.706L349.313 244.8C351.029 245.786 353.971 245.786 355.932 244.8L404.469 216.706C406.185 215.72 406.185 213.995 404.469 212.763L355.932 184.669Z" fill="url(#paint18_linear)"/>
<path d="M404.224 212.763L355.932 184.669C354.216 183.683 351.274 183.683 349.313 184.669L300.776 212.763C299.551 213.502 299.06 214.488 299.551 215.474C299.796 214.981 300.041 214.488 300.776 214.241L349.313 186.148C351.029 185.162 353.971 185.162 355.932 186.148L404.469 214.241C404.959 214.488 405.449 214.981 405.695 215.474C405.94 214.488 405.449 213.502 404.224 212.763Z" fill="white"/>
<path d="M411.333 220.649L362.796 248.743C357.158 251.946 347.842 251.946 342.204 248.743L293.667 220.649C291.216 219.17 289.745 217.199 289.5 215.474C289.255 217.938 290.481 220.402 293.667 222.127L342.204 250.221C347.842 253.425 357.158 253.425 362.796 250.221L411.333 222.127C414.519 220.402 415.99 217.938 415.5 215.474C415.255 217.199 413.784 219.17 411.333 220.649Z" fill="white"/>
<path d="M343.675 248.003L295.138 219.91C290.235 216.952 290.235 212.516 295.138 209.559L343.675 181.219C348.578 178.262 356.667 178.262 361.57 181.219L410.107 209.313C415.01 212.27 415.01 216.706 410.107 219.663L361.57 248.003C356.667 250.714 348.578 250.714 343.675 248.003ZM357.158 183.683C354.706 182.205 350.294 182.205 347.842 183.683L299.305 212.024C296.854 213.502 296.854 215.967 299.305 217.445L347.842 245.539C350.294 247.018 354.706 247.018 357.158 245.539L405.695 217.445C408.146 215.967 408.146 213.502 405.695 212.024L357.158 183.683Z" fill="url(#paint19_linear)"/>
<path opacity="0.4" d="M355.932 184.67C354.216 183.684 351.274 183.684 349.313 184.67L300.776 212.764C299.06 213.75 299.06 215.475 300.776 216.707L349.313 244.801C351.029 245.786 353.971 245.786 355.932 244.801L404.469 216.707C406.185 215.721 406.185 213.996 404.469 212.764L355.932 184.67Z" fill="#FF8863"/>
<path opacity="0.5" d="M405.695 214.488V40.75H299.305V214.488C299.305 215.228 299.796 215.967 300.776 216.46L349.313 244.554C351.029 245.54 353.971 245.54 355.932 244.554L404.469 216.46C405.204 215.967 405.695 215.228 405.695 214.488Z" fill="url(#paint20_linear)"/>
</g>
<g clip-path="url(#clip3)">
<path d="M235.183 70.6452C244.968 55.2944 246.272 29.8185 237.955 13.6512C233.715 5.48589 228.008 1.23992 222.137 1.07661L215.94 0.75L217.245 1.72984C212.842 3.1996 208.602 6.46573 205.177 12.0181C195.392 27.369 194.088 52.8448 202.405 69.0121C205.177 74.5645 208.928 78.3206 212.842 80.2802L212.026 81.4234L218.386 81.75H218.712C224.257 81.9133 230.291 78.3206 235.183 70.6452Z" fill="#8989F4"/>
<path d="M228.823 70.4809C219.038 85.8317 204.198 85.0151 195.881 68.8478C187.727 52.6805 188.869 27.0413 198.816 11.6905C208.764 -3.66027 223.441 -2.84374 231.758 13.3236C240.075 29.6542 238.77 55.1301 228.823 70.4809Z" fill="url(#paint21_linear)"/>
</g>
<g filter="url(#filter0_d)">
<path d="M226.02 46.59C226.02 48.8033 225.393 50.71 224.14 52.31C222.913 53.91 221.233 55.0433 219.1 55.71V60.23H211.42V55.87C208.247 55.1233 205.633 53.2967 203.58 50.39L208.66 44.91C209.433 45.9233 210.393 46.7767 211.54 47.47C212.687 48.1367 213.793 48.47 214.86 48.47C216.14 48.47 216.78 48.0167 216.78 47.11C216.78 46.71 216.633 46.39 216.34 46.15C216.073 45.8833 215.58 45.59 214.86 45.27C212.113 43.99 210.113 42.91 208.86 42.03C206.273 40.19 204.98 37.7767 204.98 34.79C204.98 32.6833 205.54 30.8967 206.66 29.43C207.807 27.9633 209.393 26.91 211.42 26.27V22.03H219.1V26.03C221.073 26.4833 223.18 27.55 225.42 29.23L221.5 35.51C219.153 34.0433 217.167 33.31 215.54 33.31C214.207 33.31 213.54 33.75 213.54 34.63C213.54 35.1367 213.9 35.59 214.62 35.99C214.807 36.0967 215.193 36.2967 215.78 36.59C216.393 36.8567 216.793 37.03 216.98 37.11C217.007 37.11 217.407 37.2967 218.18 37.67C218.953 38.0433 219.687 38.4167 220.38 38.79C221.1 39.1367 221.673 39.4567 222.1 39.75C224.713 41.4833 226.02 43.7633 226.02 46.59Z" fill="#7C83E5"/>
</g>
<path d="M207.793 167.457C208.183 167.848 208.817 167.848 209.207 167.457L215.571 161.093C215.962 160.703 215.962 160.069 215.571 159.679C215.181 159.288 214.547 159.288 214.157 159.679L208.5 165.336L202.843 159.679C202.453 159.288 201.819 159.288 201.429 159.679C201.038 160.069 201.038 160.703 201.429 161.093L207.793 167.457ZM207.5 117.75L207.5 166.75L209.5 166.75L209.5 117.75L207.5 117.75Z" fill="white" fill-opacity="0.8"/>
<path d="M328.356 129.671C328.444 130.216 328.074 130.73 327.529 130.818L318.645 132.259C318.1 132.347 317.586 131.977 317.498 131.432C317.409 130.887 317.78 130.373 318.325 130.285L326.222 129.004L324.941 121.107C324.853 120.562 325.223 120.048 325.768 119.96C326.313 119.872 326.827 120.242 326.915 120.787L328.356 129.671ZM251.395 73.8265L327.954 129.02L326.784 130.642L250.226 75.4489L251.395 73.8265Z" fill="white" fill-opacity="0.8"/>
<path d="M107.389 129.671C107.3 130.216 107.671 130.73 108.216 130.818L117.1 132.259C117.645 132.347 118.158 131.977 118.247 131.432C118.335 130.887 117.965 130.373 117.42 130.285L109.523 129.004L110.804 121.107C110.892 120.562 110.522 120.048 109.977 119.96C109.431 119.872 108.918 120.242 108.829 120.787L107.389 129.671ZM184.35 73.8265L107.791 129.02L108.961 130.642L185.519 75.4489L184.35 73.8265Z" fill="white" fill-opacity="0.8"/>
<defs>
<filter id="filter0_d" x="199.58" y="22.0303" width="30.44" height="46.2" filterUnits="userSpaceOnUse" color-interpolation-filters="sRGB">
<feFlood flood-opacity="0" result="BackgroundImageFix"/>
<feColorMatrix in="SourceAlpha" type="matrix" values="0 0 0 0 0 0 0 0 0 0 0 0 0 0 0 0 0 0 127 0"/>
<feOffset dy="4"/>
<feGaussianBlur stdDeviation="2"/>
<feColorMatrix type="matrix" values="0 0 0 0 0.666667 0 0 0 0 0.678431 0 0 0 0 0.972549 0 0 0 1 0"/>
<feBlend mode="normal" in2="BackgroundImageFix" result="effect1_dropShadow"/>
<feBlend mode="normal" in="SourceGraphic" in2="effect1_dropShadow" result="shape"/>
</filter>
<linearGradient id="paint0_linear" x1="13.0441" y1="264.873" x2="113.348" y2="322.477" gradientUnits="userSpaceOnUse">
<stop stop-color="#BCBEFF"/>
<stop offset="0.2271" stop-color="#AAADF8"/>
<stop offset="0.6802" stop-color="#7C83E5"/>
<stop offset="1" stop-color="#5761D7"/>
</linearGradient>
<linearGradient id="paint1_linear" x1="0.500005" y1="286.821" x2="126.587" y2="286.821" gradientUnits="userSpaceOnUse">
<stop stop-color="#E9E9FD"/>
<stop offset="0.3601" stop-color="#D3D2F9"/>
<stop offset="0.7062" stop-color="#C5C4F7"/>
<stop offset="1" stop-color="#C0BFF6"/>
</linearGradient>
<linearGradient id="paint2_linear" x1="13.0441" y1="192.698" x2="113.348" y2="250.303" gradientUnits="userSpaceOnUse">
<stop stop-color="#BCBEFF"/>
<stop offset="0.2271" stop-color="#AAADF8"/>
<stop offset="0.6802" stop-color="#7C83E5"/>
<stop offset="1" stop-color="#5761D7"/>
</linearGradient>
<linearGradient id="paint3_linear" x1="19.0477" y1="188.789" x2="108.499" y2="240.161" gradientUnits="userSpaceOnUse">
<stop offset="0.2421" stop-color="#5761D7"/>
<stop offset="0.3923" stop-color="#7A82E5"/>
<stop offset="0.5463" stop-color="#979CF0"/>
<stop offset="0.7" stop-color="#ACAFF8"/>
<stop offset="0.8519" stop-color="#B8BAFD"/>
<stop offset="1" stop-color="#BCBEFF"/>
</linearGradient>
<linearGradient id="paint4_linear" x1="0.500005" y1="214.647" x2="126.587" y2="214.647" gradientUnits="userSpaceOnUse">
<stop stop-color="#E9E9FD"/>
<stop offset="0.3601" stop-color="#D3D2F9"/>
<stop offset="0.7062" stop-color="#C5C4F7"/>
<stop offset="1" stop-color="#C0BFF6"/>
</linearGradient>
<linearGradient id="paint5_linear" x1="2.43586" y1="214.647" x2="124.651" y2="214.647" gradientUnits="userSpaceOnUse">
<stop stop-color="#E9E9FD"/>
<stop offset="0.3601" stop-color="#D3D2F9"/>
<stop offset="0.7062" stop-color="#C5C4F7"/>
<stop offset="1" stop-color="#C0BFF6"/>
</linearGradient>
<linearGradient id="paint6_linear" x1="63.5409" y1="245.496" x2="63.5409" y2="40.75" gradientUnits="userSpaceOnUse">
<stop stop-color="#7F5913"/>
<stop offset="0.031027" stop-color="#7B571C"/>
<stop offset="0.1758" stop-color="#6B4F44"/>
<stop offset="0.3255" stop-color="#5D4865"/>
<stop offset="0.4791" stop-color="#52437E"/>
<stop offset="0.6381" stop-color="#4B3F90"/>
<stop offset="0.8059" stop-color="#463D9B"/>
<stop offset="0.9975" stop-color="#453C9E"/>
</linearGradient>
<linearGradient id="paint7_linear" x1="157.144" y1="304.11" x2="257.673" y2="362.501" gradientUnits="userSpaceOnUse">
<stop stop-color="#BCBEFF"/>
<stop offset="0.2271" stop-color="#AAADF8"/>
<stop offset="0.6802" stop-color="#7C83E5"/>
<stop offset="1" stop-color="#5761D7"/>
</linearGradient>
<linearGradient id="paint8_linear" x1="144.5" y1="325.984" x2="271.588" y2="325.984" gradientUnits="userSpaceOnUse">
<stop stop-color="#E9E9FD"/>
<stop offset="0.3601" stop-color="#D3D2F9"/>
<stop offset="0.7062" stop-color="#C5C4F7"/>
<stop offset="1" stop-color="#C0BFF6"/>
</linearGradient>
<linearGradient id="paint9_linear" x1="157.144" y1="232.182" x2="257.673" y2="290.573" gradientUnits="userSpaceOnUse">
<stop stop-color="#BCBEFF"/>
<stop offset="0.2271" stop-color="#AAADF8"/>
<stop offset="0.6802" stop-color="#7C83E5"/>
<stop offset="1" stop-color="#5761D7"/>
</linearGradient>
<linearGradient id="paint10_linear" x1="163.195" y1="228.286" x2="252.847" y2="280.359" gradientUnits="userSpaceOnUse">
<stop offset="0.2421" stop-color="#5761D7"/>
<stop offset="0.3923" stop-color="#7A82E5"/>
<stop offset="0.5463" stop-color="#979CF0"/>
<stop offset="0.7" stop-color="#ACAFF8"/>
<stop offset="0.8519" stop-color="#B8BAFD"/>
<stop offset="1" stop-color="#BCBEFF"/>
</linearGradient>
<linearGradient id="paint11_linear" x1="144.5" y1="254.056" x2="271.588" y2="254.056" gradientUnits="userSpaceOnUse">
<stop stop-color="#E9E9FD"/>
<stop offset="0.3601" stop-color="#D3D2F9"/>
<stop offset="0.7062" stop-color="#C5C4F7"/>
<stop offset="1" stop-color="#C0BFF6"/>
</linearGradient>
<linearGradient id="paint12_linear" x1="146.451" y1="254.056" x2="269.637" y2="254.056" gradientUnits="userSpaceOnUse">
<stop stop-color="#E9E9FD"/>
<stop offset="0.3601" stop-color="#D3D2F9"/>
<stop offset="0.7062" stop-color="#C5C4F7"/>
<stop offset="1" stop-color="#C0BFF6"/>
</linearGradient>
<linearGradient id="paint13_linear" x1="208.041" y1="284.8" x2="208.041" y2="80.75" gradientUnits="userSpaceOnUse">
<stop stop-color="#7F5913"/>
<stop offset="0.031027" stop-color="#7B571C"/>
<stop offset="0.1758" stop-color="#6B4F44"/>
<stop offset="0.3255" stop-color="#5D4865"/>
<stop offset="0.4791" stop-color="#52437E"/>
<stop offset="0.6381" stop-color="#4B3F90"/>
<stop offset="0.8059" stop-color="#463D9B"/>
<stop offset="0.9975" stop-color="#453C9E"/>
</linearGradient>
<linearGradient id="paint14_linear" x1="302.044" y1="264.873" x2="402.348" y2="322.477" gradientUnits="userSpaceOnUse">
<stop stop-color="#BCBEFF"/>
<stop offset="0.2271" stop-color="#AAADF8"/>
<stop offset="0.6802" stop-color="#7C83E5"/>
<stop offset="1" stop-color="#5761D7"/>
</linearGradient>
<linearGradient id="paint15_linear" x1="289.5" y1="286.821" x2="415.587" y2="286.821" gradientUnits="userSpaceOnUse">
<stop stop-color="#E9E9FD"/>
<stop offset="0.3601" stop-color="#D3D2F9"/>
<stop offset="0.7062" stop-color="#C5C4F7"/>
<stop offset="1" stop-color="#C0BFF6"/>
</linearGradient>
<linearGradient id="paint16_linear" x1="302.044" y1="192.698" x2="402.348" y2="250.303" gradientUnits="userSpaceOnUse">
<stop stop-color="#BCBEFF"/>
<stop offset="0.2271" stop-color="#AAADF8"/>
<stop offset="0.6802" stop-color="#7C83E5"/>
<stop offset="1" stop-color="#5761D7"/>
</linearGradient>
<linearGradient id="paint17_linear" x1="308.048" y1="188.789" x2="397.499" y2="240.161" gradientUnits="userSpaceOnUse">
<stop offset="0.2421" stop-color="#5761D7"/>
<stop offset="0.3923" stop-color="#7A82E5"/>
<stop offset="0.5463" stop-color="#979CF0"/>
<stop offset="0.7" stop-color="#ACAFF8"/>
<stop offset="0.8519" stop-color="#B8BAFD"/>
<stop offset="1" stop-color="#BCBEFF"/>
</linearGradient>
<linearGradient id="paint18_linear" x1="289.5" y1="214.647" x2="415.587" y2="214.647" gradientUnits="userSpaceOnUse">
<stop stop-color="#E9E9FD"/>
<stop offset="0.3601" stop-color="#D3D2F9"/>
<stop offset="0.7062" stop-color="#C5C4F7"/>
<stop offset="1" stop-color="#C0BFF6"/>
</linearGradient>
<linearGradient id="paint19_linear" x1="291.436" y1="214.647" x2="413.651" y2="214.647" gradientUnits="userSpaceOnUse">
<stop stop-color="#E9E9FD"/>
<stop offset="0.3601" stop-color="#D3D2F9"/>
<stop offset="0.7062" stop-color="#C5C4F7"/>
<stop offset="1" stop-color="#C0BFF6"/>
</linearGradient>
<linearGradient id="paint20_linear" x1="352.541" y1="245.496" x2="352.541" y2="40.75" gradientUnits="userSpaceOnUse">
<stop stop-color="#7F5913"/>
<stop offset="0.031027" stop-color="#7B571C"/>
<stop offset="0.1758" stop-color="#6B4F44"/>
<stop offset="0.3255" stop-color="#5D4865"/>
<stop offset="0.4791" stop-color="#52437E"/>
<stop offset="0.6381" stop-color="#4B3F90"/>
<stop offset="0.8059" stop-color="#463D9B"/>
<stop offset="0.9975" stop-color="#453C9E"/>
</linearGradient>
<linearGradient id="paint21_linear" x1="190.5" y1="41.1001" x2="237.18" y2="41.1001" gradientUnits="userSpaceOnUse">
<stop stop-color="#E9E9FD"/>
<stop offset="0.3601" stop-color="#D3D2F9"/>
<stop offset="0.7062" stop-color="#C5C4F7"/>
<stop offset="1" stop-color="#C0BFF6"/>
</linearGradient>
<clipPath id="clip0">
<rect width="126" height="294" fill="white" transform="translate(0.5 40.75)"/>
</clipPath>
<clipPath id="clip1">
<rect width="127" height="293" fill="white" transform="translate(144.5 80.75)"/>
</clipPath>
<clipPath id="clip2">
<rect width="126" height="294" fill="white" transform="translate(289.5 40.75)"/>
</clipPath>
<clipPath id="clip3">
<rect width="53" height="81" fill="white" transform="translate(190.5 0.75)"/>
</clipPath>
</defs>
</svg>
