<svg width="27" height="26" viewBox="0 0 27 26" fill="none" xmlns="http://www.w3.org/2000/svg">
<g opacity="0.8" clip-path="url(#clip0)">
<path d="M26.8636 5.00889C25.8839 5.41996 24.84 5.69244 23.7516 5.82474C24.8713 5.18529 25.7258 4.18044 26.1276 2.96926C25.0837 3.56461 23.9311 3.98514 22.7027 4.21981C21.7115 3.21024 20.2987 2.58496 18.7575 2.58496C15.7673 2.58496 13.36 4.90651 13.36 7.75254C13.36 8.16204 13.3962 8.55579 13.4851 8.93064C8.99484 8.72116 5.02161 6.66264 2.35249 3.52681C1.88651 4.30014 1.61317 5.18529 1.61317 6.13816C1.61317 7.92736 2.57643 9.51339 4.01225 10.4316C3.1445 10.4159 2.29321 10.1749 1.57201 9.79531C1.57201 9.81106 1.57201 9.83154 1.57201 9.85201C1.57201 12.3626 3.44418 14.4479 5.89925 14.9282C5.45961 15.0432 4.98045 15.0983 4.48318 15.0983C4.1374 15.0983 3.78832 15.0794 3.46065 15.0101C4.16045 17.0561 6.14624 18.5602 8.50745 18.609C6.66985 19.984 4.33663 20.8124 1.81076 20.8124C1.36783 20.8124 0.943009 20.7935 0.518188 20.7416C2.91069 22.2173 5.74611 23.06 8.80383 23.06C18.7427 23.06 24.1764 15.185 24.1764 8.35891C24.1764 8.13054 24.1682 7.91004 24.1566 7.69111C25.2286 6.96346 26.1293 6.05469 26.8636 5.00889Z" fill="white"/>
</g>
<defs>
<clipPath id="clip0">
<rect width="26.3455" height="25.2" fill="white" transform="translate(0.518188 0.222656)"/>
</clipPath>
</defs>
</svg>
