<svg width="52" height="34" viewBox="0 0 52 34" fill="none" xmlns="http://www.w3.org/2000/svg">
<g opacity="0.8">
<path d="M50.9112 4.68577C50.3714 4.35193 49.697 4.32146 49.1293 4.60518L37.1281 10.6066V6.24422C37.1281 3.20984 34.6682 0.75 31.6338 0.75H5.99422C2.95984 0.75 0.5 3.20984 0.5 6.24422V28.2211C0.5 31.2555 2.95984 33.7153 5.99422 33.7153H31.6338C34.6682 33.7153 37.1281 31.2555 37.1281 28.2211V23.8587L49.1293 29.8693C50.0341 30.3214 51.134 29.9545 51.5862 29.0497C51.7148 28.7925 51.781 28.5086 51.7794 28.2211V6.24422C51.7797 5.60938 51.4512 5.01971 50.9112 4.68577ZM18.8141 24.5583C14.7682 24.5583 11.4884 21.2785 11.4884 17.2326C11.4884 13.1868 14.7682 9.90699 18.8141 9.90699C22.86 9.90699 26.1397 13.1868 26.1397 17.2326C26.1397 21.2785 22.8598 24.5583 18.8141 24.5583Z" fill="white"/>
</g>
</svg>
