<svg width="415" height="373" viewBox="0 0 415 373" fill="none" xmlns="http://www.w3.org/2000/svg">
<g clip-path="url(#clip0)">
<g opacity="0.3">
<path opacity="0.3" d="M126 297.035V285.945L123.058 284.22C122.323 289.395 116.195 292.845 111.047 293.584L76.2374 314.039L61.0389 319.46L12.7471 294.57L13.9728 293.831C9.80545 291.859 7.59922 287.423 5.393 283.48L2.20623 285.452L0 285.945V297.281C0 299.499 1.47082 301.717 4.16732 303.195L52.7043 331.289C58.3424 334.493 67.6576 334.493 73.2957 331.289L121.833 303.195C124.529 301.47 126 299.499 126 297.281C126 297.281 126 297.281 126 297.035Z" fill="url(#paint0_linear)"/>
<path opacity="0.3" d="M111.047 293.831L76.2374 314.285L63 318.967V334C66.6771 334 70.3541 333.261 73.2957 331.536L121.833 303.442C124.529 301.717 126 299.745 126 297.527V297.281V286.191L123.304 284.712H123.058C122.078 289.641 115.949 293.091 111.047 293.831Z" fill="#0F054C"/>
<g opacity="0.3">
<path opacity="0.3" d="M52.7043 320.2L4.16733 292.106C-1.4708 288.902 -1.4708 283.48 4.16733 280.03L52.7043 251.936C58.3424 248.733 67.6576 248.733 73.2957 251.936L121.833 280.03C127.471 283.234 127.471 288.656 121.833 292.106L73.2957 320.2C67.6576 323.403 58.3424 323.403 52.7043 320.2Z" fill="url(#paint1_linear)"/>
</g>
<g opacity="0.3">
<path opacity="0.3" d="M52.7043 320.2L4.16733 292.106C-1.4708 288.902 -1.4708 283.48 4.16733 280.03L52.7043 251.936C58.3424 248.733 67.6576 248.733 73.2957 251.936L121.833 280.03C127.471 283.234 127.471 288.656 121.833 292.106L73.2957 320.2C67.6576 323.403 58.3424 323.403 52.7043 320.2Z" fill="#0F054C"/>
</g>
</g>
<path d="M63 286.437C59.5681 286.437 56.3813 285.698 53.93 284.219L5.393 256.126C2.94164 254.647 1.47083 252.675 1.47083 250.458C1.47083 248.24 2.94164 246.268 5.393 244.789L53.93 216.942C59.0778 213.985 67.1673 213.985 72.3152 216.942L120.852 245.036C123.304 246.515 124.774 248.486 124.774 250.704C124.774 252.922 123.304 254.893 120.852 256.372L72.0701 284.219C69.6187 285.698 66.4319 286.437 63 286.437ZM63 215.463C59.8132 215.463 56.6265 216.203 54.1751 217.435L5.88328 245.775C3.67705 247.007 2.45137 248.732 2.45137 250.704C2.45137 252.429 3.67705 254.154 5.88328 255.633L54.4202 283.727C59.323 286.437 66.9222 286.437 71.8249 283.727L120.362 255.633C122.568 254.401 123.794 252.675 123.794 250.704C123.794 248.979 122.568 247.254 120.362 245.775L71.8249 217.681C69.3736 216.203 66.1868 215.463 63 215.463Z" fill="#FF8863"/>
<path opacity="0.4" d="M126 239.861V223.103L123.058 221.378C122.323 226.554 116.195 230.004 111.047 230.743L76.2374 251.197L61.0389 256.619L12.7471 231.482L13.9728 230.743C9.80545 228.771 7.59922 224.336 5.393 220.393L1.96109 222.364L0 223.103V240.108C0 242.326 1.47082 244.543 4.16732 246.022L52.7043 274.116C58.3424 277.32 67.6576 277.32 73.2957 274.116L121.833 246.022C124.529 244.297 126 242.326 126 240.108C126 239.861 126 239.861 126 239.861Z" fill="#FF8863"/>
<path d="M126 224.828V213.739L123.058 212.014C122.323 217.189 116.195 220.639 111.047 221.378L76.2374 242.079L61.0389 247.501L12.7471 222.364L13.9728 221.625C9.56031 219.9 7.35409 215.464 5.14786 211.274L1.96109 213.246L0 213.739V225.075C0 227.293 1.47082 229.511 4.16732 230.989L52.7043 259.33C58.3424 262.533 67.6576 262.533 73.2957 259.33L121.833 231.236C124.529 229.511 126 227.539 126 225.321C126 225.075 126 225.075 126 224.828Z" fill="url(#paint2_linear)"/>
<path opacity="0.3" d="M111.047 221.625L76.2374 242.079L63 246.761V261.794C66.6771 261.794 70.3541 261.055 73.2957 259.329L121.833 231.236C124.529 229.511 126 227.539 126 225.321V225.075V213.985L123.304 212.506H123.058C122.078 217.435 115.949 220.885 111.047 221.625Z" fill="#0F054C"/>
<path d="M13.7276 221.625L59.5681 195.01C61.2841 194.024 64.2257 194.024 66.1868 195.01L111.292 221.132L110.802 221.379C115.949 220.639 122.078 217.189 122.813 212.014L72.3152 183.92L57.607 179.977L45.5953 187.124L5.14787 211.275C7.3541 215.464 9.56032 219.9 13.7276 221.625Z" fill="url(#paint3_linear)"/>
<path opacity="0.3" d="M63 181.456L57.607 179.977L45.5953 187.124L5.14787 211.275C7.3541 215.464 9.56032 219.9 13.7276 221.625L59.5681 195.01C60.5487 194.517 61.7743 194.27 62.7549 194.27V181.456H63Z" fill="#0F054C"/>
<path d="M52.7043 247.994L4.16733 219.9C-1.4708 216.696 -1.4708 211.274 4.16733 207.824L52.7043 179.73C58.3424 176.527 67.6576 176.527 73.2957 179.73L121.833 207.824C127.471 211.028 127.471 216.45 121.833 219.653L73.2957 247.994C67.6576 251.197 58.3424 251.197 52.7043 247.994ZM66.4319 183.92C64.716 182.934 61.7743 182.934 59.8132 183.92L11.2763 212.014C9.56032 212.999 9.56032 214.725 11.2763 215.957L59.8132 244.051C61.5292 245.036 64.4708 245.036 66.4319 244.051L114.969 215.957C116.685 214.971 116.685 213.246 114.969 212.014L66.4319 183.92Z" fill="url(#paint4_linear)"/>
<path d="M114.724 212.014L66.4319 183.92C64.7159 182.934 61.7743 182.934 59.8132 183.92L11.2762 212.014C10.0506 212.753 9.56029 213.739 10.0506 214.725C10.2957 214.232 10.5408 213.739 11.2762 213.492L59.8132 185.399C61.5291 184.413 64.4708 184.413 66.4319 185.399L114.969 213.492C115.459 213.739 115.949 214.232 116.195 214.725C116.44 213.739 115.949 212.753 114.724 212.014Z" fill="white"/>
<path d="M121.833 219.899L73.2957 247.993C67.6576 251.197 58.3424 251.197 52.7043 247.993L4.1673 219.899C1.71594 218.421 0.24512 216.449 -1.61994e-05 214.724C-0.245152 217.188 0.980529 219.653 4.1673 221.378L52.7043 249.472C58.3424 252.675 67.6576 252.675 73.2957 249.472L121.833 221.378C125.019 219.653 126.49 217.188 126 214.724C125.755 216.449 124.284 218.421 121.833 219.899Z" fill="white"/>
<path d="M54.1751 247.254L5.63816 219.161C0.735432 216.203 0.735432 211.767 5.63816 208.81L54.1751 180.47C59.0778 177.513 67.1673 177.513 72.0701 180.47L120.607 208.564C125.51 211.521 125.51 215.957 120.607 218.914L72.0701 247.254C67.1673 249.965 59.0778 249.965 54.1751 247.254ZM67.6576 182.934C65.2062 181.456 60.7938 181.456 58.3424 182.934L9.80547 211.275C7.35411 212.753 7.35411 215.218 9.80547 216.696L58.3424 244.79C60.7938 246.269 65.2062 246.269 67.6576 244.79L116.195 216.696C118.646 215.218 118.646 212.753 116.195 211.275L67.6576 182.934Z" fill="url(#paint5_linear)"/>
<path opacity="0.4" d="M66.4319 183.919C64.716 182.934 61.7743 182.934 59.8133 183.919L11.2763 212.013C9.56033 212.999 9.56033 214.724 11.2763 215.956L59.8133 244.05C61.5292 245.036 64.4708 245.036 66.4319 244.05L114.969 215.956C116.685 214.971 116.685 213.246 114.969 212.013L66.4319 183.919Z" fill="#FF8863"/>
<path opacity="0.5" d="M116.195 213.738V40H9.80545V213.738C9.80545 214.478 10.2957 215.217 11.2763 215.71L59.8132 243.804C61.5292 244.79 64.4708 244.79 66.4319 243.804L114.969 215.71C115.704 215.217 116.195 214.478 116.195 213.738Z" fill="url(#paint6_linear)"/>
</g>
<g clip-path="url(#clip1)">
<g opacity="0.3">
<path opacity="0.3" d="M271 336.16V325.108L268.035 323.389C267.294 328.546 261.117 331.985 255.928 332.721L220.842 353.106L205.523 358.509L156.848 333.704L158.084 332.967C153.883 331.002 151.66 326.581 149.436 322.652L146.224 324.617L144 325.108V336.405C144 338.616 145.482 340.826 148.2 342.3L197.123 370.298C202.805 373.491 212.195 373.491 217.877 370.298L266.8 342.3C269.518 340.581 271 338.616 271 336.405C271 336.405 271 336.405 271 336.16Z" fill="url(#paint7_linear)"/>
<path opacity="0.3" d="M255.928 332.967L220.842 353.352L207.5 358.018V373C211.206 373 214.912 372.263 217.877 370.544L266.8 342.545C269.518 340.826 271 338.861 271 336.651V336.405V325.353L268.282 323.88H268.035C267.047 328.792 260.87 332.23 255.928 332.967Z" fill="#0F054C"/>
<g opacity="0.3">
<path opacity="0.3" d="M197.123 359.246L148.2 331.248C142.518 328.055 142.518 322.652 148.2 319.214L197.123 291.215C202.805 288.023 212.195 288.023 217.877 291.215L266.8 319.214C272.483 322.407 272.483 327.81 266.8 331.248L217.877 359.246C212.195 362.439 202.805 362.439 197.123 359.246Z" fill="url(#paint8_linear)"/>
</g>
<g opacity="0.3">
<path opacity="0.3" d="M197.123 359.246L148.2 331.248C142.518 328.055 142.518 322.652 148.2 319.214L197.123 291.215C202.805 288.023 212.195 288.023 217.877 291.215L266.8 319.214C272.483 322.407 272.483 327.81 266.8 331.248L217.877 359.246C212.195 362.439 202.805 362.439 197.123 359.246Z" fill="#0F054C"/>
</g>
</g>
<path d="M207.5 325.599C204.041 325.599 200.829 324.862 198.358 323.389L149.436 295.391C146.965 293.917 145.482 291.952 145.482 289.742C145.482 287.531 146.965 285.567 149.436 284.093L198.358 256.34C203.547 253.393 211.7 253.393 216.889 256.34L265.811 284.339C268.282 285.812 269.765 287.777 269.765 289.987C269.765 292.198 268.282 294.163 265.811 295.636L216.642 323.389C214.171 324.862 210.959 325.599 207.5 325.599ZM207.5 254.867C204.288 254.867 201.076 255.603 198.605 256.831L149.93 285.075C147.706 286.303 146.471 288.023 146.471 289.987C146.471 291.707 147.706 293.426 149.93 294.899L198.852 322.898C203.794 325.599 211.453 325.599 216.395 322.898L265.317 294.899C267.541 293.671 268.776 291.952 268.776 289.987C268.776 288.268 267.541 286.549 265.317 285.075L216.395 257.077C213.924 255.603 210.712 254.867 207.5 254.867Z" fill="#FF8863"/>
<path opacity="0.4" d="M271 279.181V262.48L268.035 260.761C267.294 265.919 261.117 269.357 255.928 270.094L220.842 290.479L205.523 295.882L156.848 270.831L158.084 270.094C153.883 268.129 151.66 263.708 149.436 259.779L145.977 261.744L144 262.48V279.427C144 281.637 145.482 283.848 148.2 285.321L197.123 313.319C202.805 316.512 212.195 316.512 217.877 313.319L266.8 285.321C269.518 283.602 271 281.637 271 279.427C271 279.181 271 279.181 271 279.181Z" fill="#FF8863"/>
<path d="M271 264.199V253.147L268.035 251.428C267.294 256.586 261.117 260.024 255.928 260.761L220.842 281.391L205.523 286.794L156.848 261.743L158.084 261.007C153.636 259.287 151.412 254.867 149.189 250.691L145.977 252.656L144 253.147V264.445C144 266.655 145.482 268.866 148.2 270.339L197.123 298.583C202.805 301.776 212.195 301.776 217.877 298.583L266.8 270.585C269.518 268.866 271 266.901 271 264.691C271 264.445 271 264.445 271 264.199Z" fill="url(#paint9_linear)"/>
<path opacity="0.3" d="M255.928 261.007L220.842 281.391L207.5 286.058V301.039C211.206 301.039 214.912 300.302 217.877 298.583L266.8 270.585C269.518 268.866 271 266.901 271 264.691V264.445V253.393L268.282 251.919H268.035C267.047 256.831 260.87 260.27 255.928 261.007Z" fill="#0F054C"/>
<path d="M157.837 261.007L204.041 234.483C205.77 233.5 208.735 233.5 210.712 234.483L256.175 260.516L255.681 260.762C260.87 260.025 267.047 256.586 267.788 251.429L216.889 223.431L202.064 219.501L189.957 226.623L149.189 250.692C151.412 254.867 153.636 259.288 157.837 261.007Z" fill="url(#paint10_linear)"/>
<path opacity="0.3" d="M207.5 220.975L202.064 219.501L189.957 226.623L149.189 250.692C151.412 254.867 153.636 259.288 157.837 261.007L204.041 234.483C205.029 233.991 206.265 233.746 207.253 233.746V220.975H207.5Z" fill="#0F054C"/>
<path d="M197.123 287.286L148.2 259.288C142.518 256.095 142.518 250.692 148.2 247.253L197.123 219.255C202.805 216.062 212.195 216.062 217.877 219.255L266.8 247.253C272.483 250.446 272.483 255.849 266.8 259.042L217.877 287.286C212.195 290.479 202.805 290.479 197.123 287.286ZM210.959 223.43C209.23 222.448 206.265 222.448 204.288 223.43L155.366 251.428C153.636 252.411 153.636 254.13 155.366 255.358L204.288 283.356C206.018 284.339 208.982 284.339 210.959 283.356L259.881 255.358C261.611 254.376 261.611 252.656 259.881 251.428L210.959 223.43Z" fill="url(#paint11_linear)"/>
<path d="M259.634 251.428L210.959 223.43C209.23 222.448 206.265 222.448 204.288 223.43L155.366 251.428C154.13 252.165 153.636 253.148 154.13 254.13C154.377 253.639 154.624 253.148 155.366 252.902L204.288 224.904C206.017 223.921 208.982 223.921 210.959 224.904L259.881 252.902C260.375 253.148 260.87 253.639 261.117 254.13C261.364 253.148 260.87 252.165 259.634 251.428Z" fill="white"/>
<path d="M266.8 259.287L217.877 287.286C212.195 290.479 202.805 290.479 197.123 287.286L148.2 259.287C145.73 257.814 144.247 255.849 144 254.13C143.753 256.586 144.988 259.042 148.2 260.761L197.123 288.759C202.805 291.952 212.195 291.952 217.877 288.759L266.8 260.761C270.012 259.042 271.494 256.586 271 254.13C270.753 255.849 269.27 257.814 266.8 259.287Z" fill="white"/>
<path d="M198.605 286.549L149.683 258.551C144.741 255.604 144.741 251.183 149.683 248.236L198.605 219.992C203.547 217.044 211.7 217.044 216.642 219.992L265.564 247.99C270.506 250.937 270.506 255.358 265.564 258.305L216.642 286.549C211.7 289.251 203.547 289.251 198.605 286.549ZM212.195 222.448C209.724 220.974 205.276 220.974 202.805 222.448L153.883 250.692C151.412 252.165 151.412 254.621 153.883 256.095L202.805 284.093C205.276 285.567 209.724 285.567 212.195 284.093L261.117 256.095C263.588 254.621 263.588 252.165 261.117 250.692L212.195 222.448Z" fill="url(#paint12_linear)"/>
<path opacity="0.4" d="M210.959 223.43C209.23 222.448 206.265 222.448 204.288 223.43L155.366 251.428C153.636 252.411 153.636 254.13 155.366 255.358L204.288 283.356C206.018 284.339 208.983 284.339 210.959 283.356L259.881 255.358C261.611 254.376 261.611 252.656 259.881 251.428L210.959 223.43Z" fill="#FF8863"/>
<path opacity="0.5" d="M261.117 253.148V80H153.883V253.148C153.883 253.884 154.377 254.621 155.366 255.112L204.288 283.111C206.018 284.093 208.982 284.093 210.959 283.111L259.881 255.112C260.623 254.621 261.117 253.884 261.117 253.148Z" fill="url(#paint13_linear)"/>
</g>
<g clip-path="url(#clip2)">
<g opacity="0.3">
<path opacity="0.3" d="M415 297.035V285.945L412.058 284.22C411.323 289.395 405.195 292.845 400.047 293.584L365.237 314.039L350.039 319.46L301.747 294.57L302.973 293.831C298.805 291.859 296.599 287.423 294.393 283.48L291.206 285.452L289 285.945V297.281C289 299.499 290.471 301.717 293.167 303.195L341.704 331.289C347.342 334.493 356.658 334.493 362.296 331.289L410.833 303.195C413.529 301.47 415 299.499 415 297.281C415 297.281 415 297.281 415 297.035Z" fill="url(#paint14_linear)"/>
<path opacity="0.3" d="M400.047 293.831L365.237 314.285L352 318.967V334C355.677 334 359.354 333.261 362.296 331.536L410.833 303.442C413.529 301.717 415 299.745 415 297.527V297.281V286.191L412.303 284.712H412.058C411.078 289.641 404.949 293.091 400.047 293.831Z" fill="#0F054C"/>
<g opacity="0.3">
<path opacity="0.3" d="M341.704 320.2L293.167 292.106C287.529 288.902 287.529 283.48 293.167 280.03L341.704 251.936C347.342 248.733 356.658 248.733 362.296 251.936L410.833 280.03C416.471 283.234 416.471 288.656 410.833 292.106L362.296 320.2C356.658 323.403 347.342 323.403 341.704 320.2Z" fill="url(#paint15_linear)"/>
</g>
<g opacity="0.3">
<path opacity="0.3" d="M341.704 320.2L293.167 292.106C287.529 288.902 287.529 283.48 293.167 280.03L341.704 251.936C347.342 248.733 356.658 248.733 362.296 251.936L410.833 280.03C416.471 283.234 416.471 288.656 410.833 292.106L362.296 320.2C356.658 323.403 347.342 323.403 341.704 320.2Z" fill="#0F054C"/>
</g>
</g>
<path d="M352 286.437C348.568 286.437 345.381 285.698 342.93 284.219L294.393 256.126C291.942 254.647 290.471 252.675 290.471 250.458C290.471 248.24 291.942 246.268 294.393 244.789L342.93 216.942C348.078 213.985 356.167 213.985 361.315 216.942L409.852 245.036C412.304 246.515 413.774 248.486 413.774 250.704C413.774 252.922 412.304 254.893 409.852 256.372L361.07 284.219C358.619 285.698 355.432 286.437 352 286.437ZM352 215.463C348.813 215.463 345.626 216.203 343.175 217.435L294.883 245.775C292.677 247.007 291.451 248.732 291.451 250.704C291.451 252.429 292.677 254.154 294.883 255.633L343.42 283.727C348.323 286.437 355.922 286.437 360.825 283.727L409.362 255.633C411.568 254.401 412.794 252.675 412.794 250.704C412.794 248.979 411.568 247.254 409.362 245.775L360.825 217.681C358.374 216.203 355.187 215.463 352 215.463Z" fill="#FF8863"/>
<path opacity="0.4" d="M415 239.861V223.103L412.058 221.378C411.323 226.554 405.195 230.004 400.047 230.743L365.237 251.197L350.039 256.619L301.747 231.482L302.973 230.743C298.805 228.771 296.599 224.336 294.393 220.393L290.961 222.364L289 223.103V240.108C289 242.326 290.471 244.543 293.167 246.022L341.704 274.116C347.342 277.32 356.658 277.32 362.296 274.116L410.833 246.022C413.529 244.297 415 242.326 415 240.108C415 239.861 415 239.861 415 239.861Z" fill="#FF8863"/>
<path d="M415 224.828V213.739L412.058 212.014C411.323 217.189 405.195 220.639 400.047 221.378L365.237 242.079L350.039 247.501L301.747 222.364L302.973 221.625C298.56 219.9 296.354 215.464 294.148 211.274L290.961 213.246L289 213.739V225.075C289 227.293 290.471 229.511 293.167 230.989L341.704 259.33C347.342 262.533 356.658 262.533 362.296 259.33L410.833 231.236C413.529 229.511 415 227.539 415 225.321C415 225.075 415 225.075 415 224.828Z" fill="url(#paint16_linear)"/>
<path opacity="0.3" d="M400.047 221.625L365.237 242.079L352 246.761V261.794C355.677 261.794 359.354 261.055 362.296 259.329L410.833 231.236C413.529 229.511 415 227.539 415 225.321V225.075V213.985L412.303 212.506H412.058C411.078 217.435 404.949 220.885 400.047 221.625Z" fill="#0F054C"/>
<path d="M302.728 221.625L348.568 195.01C350.284 194.024 353.226 194.024 355.187 195.01L400.292 221.132L399.802 221.379C404.949 220.639 411.078 217.189 411.813 212.014L361.315 183.92L346.607 179.977L334.595 187.124L294.148 211.275C296.354 215.464 298.56 219.9 302.728 221.625Z" fill="url(#paint17_linear)"/>
<path opacity="0.3" d="M352 181.456L346.607 179.977L334.595 187.124L294.148 211.275C296.354 215.464 298.56 219.9 302.728 221.625L348.568 195.01C349.549 194.517 350.774 194.27 351.755 194.27V181.456H352Z" fill="#0F054C"/>
<path d="M341.704 247.994L293.167 219.9C287.529 216.696 287.529 211.274 293.167 207.824L341.704 179.73C347.342 176.527 356.658 176.527 362.296 179.73L410.833 207.824C416.471 211.028 416.471 216.45 410.833 219.653L362.296 247.994C356.658 251.197 347.342 251.197 341.704 247.994ZM355.432 183.92C353.716 182.934 350.774 182.934 348.813 183.92L300.276 212.014C298.56 212.999 298.56 214.725 300.276 215.957L348.813 244.051C350.529 245.036 353.471 245.036 355.432 244.051L403.969 215.957C405.685 214.971 405.685 213.246 403.969 212.014L355.432 183.92Z" fill="url(#paint18_linear)"/>
<path d="M403.724 212.014L355.432 183.92C353.716 182.934 350.774 182.934 348.813 183.92L300.276 212.014C299.051 212.753 298.56 213.739 299.051 214.725C299.296 214.232 299.541 213.739 300.276 213.492L348.813 185.399C350.529 184.413 353.471 184.413 355.432 185.399L403.969 213.492C404.459 213.739 404.949 214.232 405.195 214.725C405.44 213.739 404.949 212.753 403.724 212.014Z" fill="white"/>
<path d="M410.833 219.899L362.296 247.993C356.658 251.197 347.342 251.197 341.704 247.993L293.167 219.899C290.716 218.421 289.245 216.449 289 214.724C288.755 217.188 289.981 219.653 293.167 221.378L341.704 249.472C347.342 252.675 356.658 252.675 362.296 249.472L410.833 221.378C414.019 219.653 415.49 217.188 415 214.724C414.755 216.449 413.284 218.421 410.833 219.899Z" fill="white"/>
<path d="M343.175 247.254L294.638 219.161C289.735 216.203 289.735 211.767 294.638 208.81L343.175 180.47C348.078 177.513 356.167 177.513 361.07 180.47L409.607 208.564C414.51 211.521 414.51 215.957 409.607 218.914L361.07 247.254C356.167 249.965 348.078 249.965 343.175 247.254ZM356.658 182.934C354.206 181.456 349.794 181.456 347.342 182.934L298.805 211.275C296.354 212.753 296.354 215.218 298.805 216.696L347.342 244.79C349.794 246.269 354.206 246.269 356.658 244.79L405.195 216.696C407.646 215.218 407.646 212.753 405.195 211.275L356.658 182.934Z" fill="url(#paint19_linear)"/>
<path opacity="0.4" d="M355.432 183.919C353.716 182.934 350.774 182.934 348.813 183.919L300.276 212.013C298.56 212.999 298.56 214.724 300.276 215.956L348.813 244.05C350.529 245.036 353.471 245.036 355.432 244.05L403.969 215.956C405.685 214.971 405.685 213.246 403.969 212.013L355.432 183.919Z" fill="#FF8863"/>
<path opacity="0.5" d="M405.195 213.738V40H298.805V213.738C298.805 214.478 299.296 215.217 300.276 215.71L348.813 243.804C350.529 244.79 353.471 244.79 355.432 243.804L403.969 215.71C404.704 215.217 405.195 214.478 405.195 213.738Z" fill="url(#paint20_linear)"/>
</g>
<g clip-path="url(#clip3)">
<path d="M234.683 69.8952C244.468 54.5444 245.772 29.0685 237.455 12.9012C233.215 4.73589 227.508 0.489919 221.637 0.326613L215.44 0L216.745 0.979839C212.342 2.4496 208.102 5.71573 204.677 11.2681C194.892 26.619 193.588 52.0948 201.905 68.2621C204.677 73.8145 208.428 77.5706 212.342 79.5302L211.526 80.6734L217.886 81H218.212C223.757 81.1633 229.791 77.5706 234.683 69.8952Z" fill="#8989F4"/>
<path d="M228.323 69.7309C218.538 85.0817 203.698 84.2651 195.381 68.0978C187.227 51.9305 188.369 26.2913 198.316 10.9405C208.264 -4.41027 222.941 -3.59374 231.258 12.5736C239.575 28.9042 238.27 54.3801 228.323 69.7309Z" fill="url(#paint21_linear)"/>
</g>
<path d="M188.946 93.974L193.068 90.698H195.048V104H192.438V94.226L190.314 95.864L188.946 93.974ZM206.803 104.216C205.291 104.216 204.043 103.736 203.059 102.776C202.087 101.828 201.601 100.598 201.601 99.086C201.601 97.574 202.093 96.344 203.077 95.396C204.073 94.424 205.339 93.938 206.875 93.938C207.883 93.938 208.795 94.178 209.611 94.658C210.439 95.138 211.051 95.81 211.447 96.674L209.413 97.79C208.813 96.794 207.979 96.296 206.911 96.296C206.095 96.296 205.429 96.566 204.913 97.106C204.385 97.634 204.121 98.294 204.121 99.086C204.121 99.902 204.379 100.574 204.895 101.102C205.423 101.63 206.077 101.894 206.857 101.894C207.373 101.894 207.865 101.756 208.333 101.48C208.801 101.204 209.143 100.85 209.359 100.418L211.411 101.624C210.991 102.416 210.367 103.046 209.539 103.514C208.723 103.982 207.811 104.216 206.803 104.216ZM215.506 90.32V104H212.968V90.32H215.506ZM220.665 91.526C220.665 91.97 220.515 92.342 220.215 92.642C219.915 92.942 219.543 93.092 219.099 93.092C218.655 93.092 218.283 92.942 217.983 92.642C217.683 92.342 217.533 91.97 217.533 91.526C217.533 91.082 217.683 90.716 217.983 90.428C218.283 90.128 218.655 89.978 219.099 89.978C219.543 89.978 219.915 90.128 220.215 90.428C220.515 90.716 220.665 91.082 220.665 91.526ZM220.359 94.19V104H217.821V94.19H220.359ZM227.299 104.216C225.787 104.216 224.539 103.736 223.555 102.776C222.583 101.828 222.097 100.598 222.097 99.086C222.097 97.574 222.589 96.344 223.573 95.396C224.569 94.424 225.835 93.938 227.371 93.938C228.379 93.938 229.291 94.178 230.107 94.658C230.935 95.138 231.547 95.81 231.943 96.674L229.909 97.79C229.309 96.794 228.475 96.296 227.407 96.296C226.591 96.296 225.925 96.566 225.409 97.106C224.881 97.634 224.617 98.294 224.617 99.086C224.617 99.902 224.875 100.574 225.391 101.102C225.919 101.63 226.573 101.894 227.353 101.894C227.869 101.894 228.361 101.756 228.829 101.48C229.297 101.204 229.639 100.85 229.855 100.418L231.907 101.624C231.487 102.416 230.863 103.046 230.035 103.514C229.219 103.982 228.307 104.216 227.299 104.216ZM243.023 104H239.909L236.669 99.806L236.003 100.4V104H233.465V90.32H236.003V97.538L239.567 94.19H242.771L238.397 98.204L243.023 104Z" fill="#C5C4F7"/>
<g filter="url(#filter0_d)">
<path d="M225.52 45.84C225.52 48.0533 224.893 49.96 223.64 51.56C222.413 53.16 220.733 54.2933 218.6 54.96V59.48H210.92V55.12C207.747 54.3733 205.133 52.5467 203.08 49.64L208.16 44.16C208.933 45.1733 209.893 46.0267 211.04 46.72C212.187 47.3867 213.293 47.72 214.36 47.72C215.64 47.72 216.28 47.2667 216.28 46.36C216.28 45.96 216.133 45.64 215.84 45.4C215.573 45.1333 215.08 44.84 214.36 44.52C211.613 43.24 209.613 42.16 208.36 41.28C205.773 39.44 204.48 37.0267 204.48 34.04C204.48 31.9333 205.04 30.1467 206.16 28.68C207.307 27.2133 208.893 26.16 210.92 25.52V21.28H218.6V25.28C220.573 25.7333 222.68 26.8 224.92 28.48L221 34.76C218.653 33.2933 216.667 32.56 215.04 32.56C213.707 32.56 213.04 33 213.04 33.88C213.04 34.3867 213.4 34.84 214.12 35.24C214.307 35.3467 214.693 35.5467 215.28 35.84C215.893 36.1067 216.293 36.28 216.48 36.36C216.507 36.36 216.907 36.5467 217.68 36.92C218.453 37.2933 219.187 37.6667 219.88 38.04C220.6 38.3867 221.173 38.7067 221.6 39C224.213 40.7333 225.52 43.0133 225.52 45.84Z" fill="#7C83E5"/>
</g>
<path d="M207.293 166.707C207.683 167.098 208.317 167.098 208.707 166.707L215.071 160.343C215.462 159.953 215.462 159.319 215.071 158.929C214.681 158.538 214.047 158.538 213.657 158.929L208 164.586L202.343 158.929C201.953 158.538 201.319 158.538 200.929 158.929C200.538 159.319 200.538 159.953 200.929 160.343L207.293 166.707ZM207 117L207 166L209 166L209 117L207 117Z" fill="white" fill-opacity="0.8"/>
<path d="M337.48 166.26C335.88 166.26 334.453 165.813 333.2 164.92C331.867 163.893 331.2 162.28 331.2 160.08V151.22H335.4V160.08C335.4 160.787 335.587 161.327 335.96 161.7C336.347 162.073 336.853 162.26 337.48 162.26C338.093 162.26 338.593 162.073 338.98 161.7C339.367 161.327 339.56 160.787 339.56 160.08V151.22H343.76V160.08C343.76 161.187 343.58 162.153 343.22 162.98C342.86 163.807 342.373 164.453 341.76 164.92C341.147 165.373 340.48 165.713 339.76 165.94C339.053 166.153 338.293 166.26 337.48 166.26ZM351.323 166.26C348.843 166.26 346.75 165.447 345.043 163.82L347.043 160.72C348.43 161.867 349.877 162.44 351.383 162.44C352.33 162.44 352.803 162.18 352.803 161.66C352.803 161.313 352.43 161.007 351.683 160.74C351.363 160.633 351.057 160.54 350.763 160.46C349.723 160.14 348.957 159.86 348.463 159.62C346.81 158.807 345.983 157.507 345.983 155.72C345.983 154.36 346.523 153.233 347.603 152.34C348.67 151.447 350.05 151 351.743 151C353.77 151 355.597 151.6 357.223 152.8L355.383 156.02C354.97 155.713 354.397 155.447 353.663 155.22C352.943 154.993 352.323 154.88 351.803 154.88C351.35 154.88 351.003 154.947 350.763 155.08C350.537 155.213 350.423 155.387 350.423 155.6C350.423 155.827 350.517 156.007 350.703 156.14C350.89 156.26 351.183 156.38 351.583 156.5C352.983 156.927 353.93 157.24 354.423 157.44C356.423 158.213 357.423 159.54 357.423 161.42C357.423 162.82 356.87 163.98 355.763 164.9C354.657 165.807 353.177 166.26 351.323 166.26ZM365.507 166H359.387V151.22H365.547C367.921 151.22 369.754 151.88 371.047 153.2C372.367 154.52 373.027 156.327 373.027 158.62C373.027 160.9 372.361 162.7 371.027 164.02C369.707 165.34 367.867 166 365.507 166ZM363.547 155.22V162H365.707C366.681 162 367.421 161.667 367.927 161C368.447 160.333 368.707 159.533 368.707 158.6C368.707 157.667 368.447 156.873 367.927 156.22C367.421 155.553 366.681 155.22 365.707 155.22H363.547Z" fill="white" fill-opacity="0.8"/>
<path d="M197.38 205H186.36V190.22H197.42V194.06H190.56V195.7H196.9V199.52H190.56V201.16H197.38V205ZM202.738 205V194.22H198.698V190.22H210.958V194.22H206.938V205H202.738ZM216.75 205H212.59V190.22H216.75V195.7H221.39V190.22H225.59V205H221.39V199.7H216.75V205Z" fill="white" fill-opacity="0.8"/>
<path d="M51.9 157.88C52.8067 158.08 53.5 158.52 53.98 159.2C54.4733 159.867 54.72 160.673 54.72 161.62C54.72 162.913 54.2733 163.967 53.38 164.78C52.4867 165.593 51.3267 166 49.9 166H42.36V151.22H49.54C50.9133 151.22 51.9933 151.58 52.78 152.3C53.5533 153.02 53.94 153.873 53.94 154.86C53.94 155.527 53.7467 156.147 53.36 156.72C52.9867 157.28 52.5 157.667 51.9 157.88ZM48.74 154.7H46.44V156.8H48.56C48.9867 156.8 49.3067 156.707 49.52 156.52C49.7467 156.32 49.86 156.067 49.86 155.76C49.86 155.467 49.7533 155.22 49.54 155.02C49.34 154.807 49.0733 154.7 48.74 154.7ZM46.44 162.48H48.98C49.46 162.48 49.82 162.367 50.06 162.14C50.3133 161.9 50.44 161.607 50.44 161.26C50.44 160.913 50.32 160.627 50.08 160.4C49.8533 160.173 49.5333 160.06 49.12 160.06H46.44V162.48ZM59.3434 166V155.22H55.3034V151.22H67.5634V155.22H63.5434V166H59.3434ZM75.7639 166.22C73.5906 166.22 71.7772 165.52 70.3239 164.12C68.8839 162.707 68.1639 160.887 68.1639 158.66C68.1639 156.42 68.8972 154.58 70.3639 153.14C71.8306 151.687 73.6372 150.96 75.7839 150.96C77.0906 150.96 78.2906 151.213 79.3839 151.72C80.4906 152.227 81.3972 152.92 82.1039 153.8L79.5039 156.62C78.4372 155.5 77.2906 154.94 76.0639 154.94C75.0639 154.94 74.2106 155.293 73.5039 156C72.8239 156.693 72.4839 157.567 72.4839 158.62C72.4839 159.647 72.8239 160.513 73.5039 161.22C74.1972 161.913 75.0439 162.26 76.0439 162.26C77.3772 162.26 78.5506 161.673 79.5639 160.5L82.3039 163.16C81.6639 164.04 80.7506 164.773 79.5639 165.36C78.4172 165.933 77.1506 166.22 75.7639 166.22Z" fill="white" fill-opacity="0.8"/>
<path d="M327.856 128.921C327.944 129.466 327.574 129.98 327.029 130.068L318.145 131.509C317.6 131.597 317.086 131.227 316.998 130.682C316.909 130.137 317.28 129.623 317.825 129.535L325.722 128.254L324.441 120.357C324.353 119.812 324.723 119.298 325.268 119.21C325.813 119.122 326.327 119.492 326.415 120.037L327.856 128.921ZM250.895 73.0765L327.454 128.27L326.284 129.892L249.726 74.6989L250.895 73.0765Z" fill="white" fill-opacity="0.8"/>
<path d="M106.889 128.921C106.8 129.466 107.171 129.98 107.716 130.068L116.6 131.509C117.145 131.597 117.658 131.227 117.747 130.682C117.835 130.137 117.465 129.623 116.92 129.535L109.023 128.254L110.304 120.357C110.392 119.812 110.022 119.298 109.477 119.21C108.931 119.122 108.418 119.492 108.329 120.037L106.889 128.921ZM183.85 73.0765L107.291 128.27L108.461 129.892L185.019 74.6989L183.85 73.0765Z" fill="white" fill-opacity="0.8"/>
<defs>
<filter id="filter0_d" x="199.08" y="21.2798" width="30.44" height="46.2" filterUnits="userSpaceOnUse" color-interpolation-filters="sRGB">
<feFlood flood-opacity="0" result="BackgroundImageFix"/>
<feColorMatrix in="SourceAlpha" type="matrix" values="0 0 0 0 0 0 0 0 0 0 0 0 0 0 0 0 0 0 127 0"/>
<feOffset dy="4"/>
<feGaussianBlur stdDeviation="2"/>
<feColorMatrix type="matrix" values="0 0 0 0 0.666667 0 0 0 0 0.678431 0 0 0 0 0.972549 0 0 0 1 0"/>
<feBlend mode="normal" in2="BackgroundImageFix" result="effect1_dropShadow"/>
<feBlend mode="normal" in="SourceGraphic" in2="effect1_dropShadow" result="shape"/>
</filter>
<linearGradient id="paint0_linear" x1="12.5441" y1="264.124" x2="112.848" y2="321.728" gradientUnits="userSpaceOnUse">
<stop stop-color="#BCBEFF"/>
<stop offset="0.2271" stop-color="#AAADF8"/>
<stop offset="0.6802" stop-color="#7C83E5"/>
<stop offset="1" stop-color="#5761D7"/>
</linearGradient>
<linearGradient id="paint1_linear" x1="1.23737e-05" y1="286.072" x2="126.087" y2="286.072" gradientUnits="userSpaceOnUse">
<stop stop-color="#E9E9FD"/>
<stop offset="0.3601" stop-color="#D3D2F9"/>
<stop offset="0.7062" stop-color="#C5C4F7"/>
<stop offset="1" stop-color="#C0BFF6"/>
</linearGradient>
<linearGradient id="paint2_linear" x1="12.5441" y1="191.949" x2="112.848" y2="249.554" gradientUnits="userSpaceOnUse">
<stop stop-color="#BCBEFF"/>
<stop offset="0.2271" stop-color="#AAADF8"/>
<stop offset="0.6802" stop-color="#7C83E5"/>
<stop offset="1" stop-color="#5761D7"/>
</linearGradient>
<linearGradient id="paint3_linear" x1="18.5478" y1="188.039" x2="107.999" y2="239.411" gradientUnits="userSpaceOnUse">
<stop offset="0.2421" stop-color="#5761D7"/>
<stop offset="0.3923" stop-color="#7A82E5"/>
<stop offset="0.5463" stop-color="#979CF0"/>
<stop offset="0.7" stop-color="#ACAFF8"/>
<stop offset="0.8519" stop-color="#B8BAFD"/>
<stop offset="1" stop-color="#BCBEFF"/>
</linearGradient>
<linearGradient id="paint4_linear" x1="1.23737e-05" y1="213.897" x2="126.087" y2="213.897" gradientUnits="userSpaceOnUse">
<stop stop-color="#E9E9FD"/>
<stop offset="0.3601" stop-color="#D3D2F9"/>
<stop offset="0.7062" stop-color="#C5C4F7"/>
<stop offset="1" stop-color="#C0BFF6"/>
</linearGradient>
<linearGradient id="paint5_linear" x1="1.93586" y1="213.898" x2="124.151" y2="213.898" gradientUnits="userSpaceOnUse">
<stop stop-color="#E9E9FD"/>
<stop offset="0.3601" stop-color="#D3D2F9"/>
<stop offset="0.7062" stop-color="#C5C4F7"/>
<stop offset="1" stop-color="#C0BFF6"/>
</linearGradient>
<linearGradient id="paint6_linear" x1="63.0409" y1="244.746" x2="63.0409" y2="40" gradientUnits="userSpaceOnUse">
<stop stop-color="#7F5913"/>
<stop offset="0.031027" stop-color="#7B571C"/>
<stop offset="0.1758" stop-color="#6B4F44"/>
<stop offset="0.3255" stop-color="#5D4865"/>
<stop offset="0.4791" stop-color="#52437E"/>
<stop offset="0.6381" stop-color="#4B3F90"/>
<stop offset="0.8059" stop-color="#463D9B"/>
<stop offset="0.9975" stop-color="#453C9E"/>
</linearGradient>
<linearGradient id="paint7_linear" x1="156.644" y1="303.361" x2="257.173" y2="361.751" gradientUnits="userSpaceOnUse">
<stop stop-color="#BCBEFF"/>
<stop offset="0.2271" stop-color="#AAADF8"/>
<stop offset="0.6802" stop-color="#7C83E5"/>
<stop offset="1" stop-color="#5761D7"/>
</linearGradient>
<linearGradient id="paint8_linear" x1="144" y1="325.234" x2="271.088" y2="325.234" gradientUnits="userSpaceOnUse">
<stop stop-color="#E9E9FD"/>
<stop offset="0.3601" stop-color="#D3D2F9"/>
<stop offset="0.7062" stop-color="#C5C4F7"/>
<stop offset="1" stop-color="#C0BFF6"/>
</linearGradient>
<linearGradient id="paint9_linear" x1="156.644" y1="231.432" x2="257.173" y2="289.823" gradientUnits="userSpaceOnUse">
<stop stop-color="#BCBEFF"/>
<stop offset="0.2271" stop-color="#AAADF8"/>
<stop offset="0.6802" stop-color="#7C83E5"/>
<stop offset="1" stop-color="#5761D7"/>
</linearGradient>
<linearGradient id="paint10_linear" x1="162.695" y1="227.536" x2="252.347" y2="279.609" gradientUnits="userSpaceOnUse">
<stop offset="0.2421" stop-color="#5761D7"/>
<stop offset="0.3923" stop-color="#7A82E5"/>
<stop offset="0.5463" stop-color="#979CF0"/>
<stop offset="0.7" stop-color="#ACAFF8"/>
<stop offset="0.8519" stop-color="#B8BAFD"/>
<stop offset="1" stop-color="#BCBEFF"/>
</linearGradient>
<linearGradient id="paint11_linear" x1="144" y1="253.306" x2="271.088" y2="253.306" gradientUnits="userSpaceOnUse">
<stop stop-color="#E9E9FD"/>
<stop offset="0.3601" stop-color="#D3D2F9"/>
<stop offset="0.7062" stop-color="#C5C4F7"/>
<stop offset="1" stop-color="#C0BFF6"/>
</linearGradient>
<linearGradient id="paint12_linear" x1="145.951" y1="253.306" x2="269.137" y2="253.306" gradientUnits="userSpaceOnUse">
<stop stop-color="#E9E9FD"/>
<stop offset="0.3601" stop-color="#D3D2F9"/>
<stop offset="0.7062" stop-color="#C5C4F7"/>
<stop offset="1" stop-color="#C0BFF6"/>
</linearGradient>
<linearGradient id="paint13_linear" x1="207.541" y1="284.05" x2="207.541" y2="80" gradientUnits="userSpaceOnUse">
<stop stop-color="#7F5913"/>
<stop offset="0.031027" stop-color="#7B571C"/>
<stop offset="0.1758" stop-color="#6B4F44"/>
<stop offset="0.3255" stop-color="#5D4865"/>
<stop offset="0.4791" stop-color="#52437E"/>
<stop offset="0.6381" stop-color="#4B3F90"/>
<stop offset="0.8059" stop-color="#463D9B"/>
<stop offset="0.9975" stop-color="#453C9E"/>
</linearGradient>
<linearGradient id="paint14_linear" x1="301.544" y1="264.124" x2="401.848" y2="321.728" gradientUnits="userSpaceOnUse">
<stop stop-color="#BCBEFF"/>
<stop offset="0.2271" stop-color="#AAADF8"/>
<stop offset="0.6802" stop-color="#7C83E5"/>
<stop offset="1" stop-color="#5761D7"/>
</linearGradient>
<linearGradient id="paint15_linear" x1="289" y1="286.072" x2="415.087" y2="286.072" gradientUnits="userSpaceOnUse">
<stop stop-color="#E9E9FD"/>
<stop offset="0.3601" stop-color="#D3D2F9"/>
<stop offset="0.7062" stop-color="#C5C4F7"/>
<stop offset="1" stop-color="#C0BFF6"/>
</linearGradient>
<linearGradient id="paint16_linear" x1="301.544" y1="191.949" x2="401.848" y2="249.554" gradientUnits="userSpaceOnUse">
<stop stop-color="#BCBEFF"/>
<stop offset="0.2271" stop-color="#AAADF8"/>
<stop offset="0.6802" stop-color="#7C83E5"/>
<stop offset="1" stop-color="#5761D7"/>
</linearGradient>
<linearGradient id="paint17_linear" x1="307.548" y1="188.039" x2="396.999" y2="239.411" gradientUnits="userSpaceOnUse">
<stop offset="0.2421" stop-color="#5761D7"/>
<stop offset="0.3923" stop-color="#7A82E5"/>
<stop offset="0.5463" stop-color="#979CF0"/>
<stop offset="0.7" stop-color="#ACAFF8"/>
<stop offset="0.8519" stop-color="#B8BAFD"/>
<stop offset="1" stop-color="#BCBEFF"/>
</linearGradient>
<linearGradient id="paint18_linear" x1="289" y1="213.897" x2="415.087" y2="213.897" gradientUnits="userSpaceOnUse">
<stop stop-color="#E9E9FD"/>
<stop offset="0.3601" stop-color="#D3D2F9"/>
<stop offset="0.7062" stop-color="#C5C4F7"/>
<stop offset="1" stop-color="#C0BFF6"/>
</linearGradient>
<linearGradient id="paint19_linear" x1="290.936" y1="213.898" x2="413.151" y2="213.898" gradientUnits="userSpaceOnUse">
<stop stop-color="#E9E9FD"/>
<stop offset="0.3601" stop-color="#D3D2F9"/>
<stop offset="0.7062" stop-color="#C5C4F7"/>
<stop offset="1" stop-color="#C0BFF6"/>
</linearGradient>
<linearGradient id="paint20_linear" x1="352.041" y1="244.746" x2="352.041" y2="40" gradientUnits="userSpaceOnUse">
<stop stop-color="#7F5913"/>
<stop offset="0.031027" stop-color="#7B571C"/>
<stop offset="0.1758" stop-color="#6B4F44"/>
<stop offset="0.3255" stop-color="#5D4865"/>
<stop offset="0.4791" stop-color="#52437E"/>
<stop offset="0.6381" stop-color="#4B3F90"/>
<stop offset="0.8059" stop-color="#463D9B"/>
<stop offset="0.9975" stop-color="#453C9E"/>
</linearGradient>
<linearGradient id="paint21_linear" x1="190" y1="40.3501" x2="236.68" y2="40.3501" gradientUnits="userSpaceOnUse">
<stop stop-color="#E9E9FD"/>
<stop offset="0.3601" stop-color="#D3D2F9"/>
<stop offset="0.7062" stop-color="#C5C4F7"/>
<stop offset="1" stop-color="#C0BFF6"/>
</linearGradient>
<clipPath id="clip0">
<rect width="126" height="294" fill="white" transform="translate(0 40)"/>
</clipPath>
<clipPath id="clip1">
<rect width="127" height="293" fill="white" transform="translate(144 80)"/>
</clipPath>
<clipPath id="clip2">
<rect width="126" height="294" fill="white" transform="translate(289 40)"/>
</clipPath>
<clipPath id="clip3">
<rect width="53" height="81" fill="white" transform="translate(190)"/>
</clipPath>
</defs>
</svg>
