<svg width="26" height="26" viewBox="0 0 26 26" fill="none" xmlns="http://www.w3.org/2000/svg">
<g opacity="0.8">
<path d="M24.468 6.91741C24.1957 5.9053 23.3977 5.10747 22.3858 4.83494C20.537 4.3291 13.142 4.3291 13.142 4.3291C13.142 4.3291 5.7472 4.3291 3.89847 4.81576C2.90597 5.088 2.08853 5.90545 1.81629 6.91741C1.32977 8.766 1.32977 12.5997 1.32977 12.5997C1.32977 12.5997 1.32977 16.4528 1.81629 18.282C2.08882 19.294 2.88651 20.0918 3.89862 20.3644C5.76667 20.8703 13.1423 20.8703 13.1423 20.8703C13.1423 20.8703 20.537 20.8703 22.3858 20.3837C23.3979 20.1113 24.1957 19.3135 24.4682 18.3015C24.9546 16.4528 24.9546 12.6192 24.9546 12.6192C24.9546 12.6192 24.9741 8.766 24.468 6.91741ZM10.7876 16.1415V9.05799L16.9369 12.5997L10.7876 16.1415Z" fill="white"/>
</g>
</svg>
